<?xml version="1.0" standalone="no"?>
<!DOCTYPE svg PUBLIC "-//W3C//DTD SVG 1.1//EN" "http://www.w3.org/Graphics/SVG/1.1/DTD/svg11.dtd" >
<!--
2013-9-30: Created.
-->
<svg>
<metadata>
Created by iconfont
</metadata>
<defs>

<font id="iconfont" horiz-adv-x="1024" >
  <font-face
    font-family="iconfont"
    font-weight="500"
    font-stretch="normal"
    units-per-em="1024"
    ascent="896"
    descent="-128"
  />
    <missing-glyph />
    
    <glyph glyph-name="man88yuanbaoyou" unicode="&#58880;" d="M527.519539 848.601498c-247.370854 0-447.905178-200.525005-447.905178-447.888794 0-247.362765 200.534323-447.88777 447.905178-447.88777 247.372902 0 447.907226 200.523981 447.907226 447.88777C975.426765 648.076493 774.890496 848.601498 527.519539 848.601498zM527.519539 5.696c-218.167603 0-395.030835 176.855962-395.030835 395.017728 0 218.16279 176.862208 395.017728 395.030835 395.017728 218.170675 0 395.033907-176.85289 395.033907-395.017728C922.552422 182.552986 745.690214 5.696 527.519539 5.696zM454.766694 417.575731c16.131072 6.385459 28.397875 15.397683 36.481331 26.802483 8.401715 11.859046 12.661862 25.982771 12.661862 41.983181 0 25.065882-9.295053 46.633062-27.623219 64.104038-18.322022 17.458586-42.836378 26.309222-72.859341 26.309222-29.869466 0-54.146355-8.655155-72.155238-25.725952-18.020147-17.076941-27.157606-38.44864-27.157606-63.513498 0-16.627712 4.300083-31.10953 12.779622-43.04128 8.129434-11.44361 20.600013-20.474266 37.080986-26.857677-19.934822-5.624115-35.587994-15.865344-46.55104-30.459699-11.363226-15.121408-17.124659-34.136474-17.124659-56.517222 0-30.039142 10.55273-55.466291 31.366656-75.569152 20.800614-20.103885 48.545587-30.296986 82.463437-30.296986 33.91273 0 61.655654 10.154291 82.460365 30.176256 20.813926 20.032205 31.368704 45.103206 31.368704 74.518221 0 21.28681-5.601792 39.86391-16.648806 55.217562C490.606387 399.587021 474.955264 410.636698 454.766694 417.575731zM348.668006 488.940032c0 14.090957 5.282509 26.36032 15.699149 36.46761 10.422784 10.116403 23.723213 15.244186 39.528858 15.244186 15.647027 0 28.905472-5.246464 39.407104-15.593165 10.497536-10.342605 15.819981-23.286374 15.819981-38.460928 0-14.55657-5.164851-27.024486-15.351296-37.053952-10.190541-10.037658-23.45001-15.125504-39.407104-15.125504-16.428851 0-29.964698 5.126758-40.228864 15.242138C353.873818 459.768627 348.668006 472.985702 348.668006 488.940032zM453.95415 280.139571c-12.904448-12.755558-29.510246-19.221811-49.355059-19.221811-12.77655 0-24.869376 3.080192-35.940966 9.156506-11.054182 6.063104-19.500954 14.741709-25.102746 25.794458-5.618176 11.080397-8.466125 22.705152-8.466125 34.556006 0 19.377357 6.505472 35.745075 19.33824 48.651059 12.826624 12.908032 29.233971 19.450982 48.765645 19.450982 19.99319 0 36.875366-6.622822 50.176819-19.688448 13.295309-13.065523 20.034048-29.826355 20.034048-49.818624C473.403904 309.33545 466.860646 292.891955 453.95415 280.139571zM702.282854 417.575731c16.13312 6.385459 28.399923 15.397683 36.481331 26.802483 8.400691 11.859046 12.660838 25.982771 12.660838 41.983181 0 25.065882-9.293005 46.633062-27.622195 64.104038-18.322022 17.458586-42.836378 26.309222-72.857293 26.309222-29.873562 0-54.149427-8.655155-72.156262-25.725952-18.020147-17.076941-27.15863-38.44864-27.15863-63.513498 0-16.627712 4.301107-31.10953 12.780544-43.04128 8.12841-11.44361 20.600013-20.474266 37.08201-26.857677-19.935846-5.624115-35.589018-15.865344-46.554112-30.459699-11.362202-15.121408-17.123635-34.136474-17.123635-56.517222 0-30.039142 10.553754-55.466291 31.366656-75.569152 20.802662-20.103885 48.546611-30.296986 82.463437-30.296986 33.911706 0 61.656678 10.154291 82.462413 30.176256 20.812902 20.032205 31.366656 45.103206 31.366656 74.518221 0 21.28681-5.601792 39.86391-16.646758 55.217562C738.124595 399.587021 722.47255 410.636698 702.282854 417.575731zM596.184166 488.940032c0 14.090957 5.280461 26.36032 15.699149 36.46761 10.42176 10.116403 23.723213 15.244186 39.528858 15.244186 15.646003 0 28.905472-5.246464 39.405056-15.593165 10.499584-10.342605 15.819981-23.286374 15.819981-38.460928 0-14.55657-5.162803-27.024486-15.350272-37.053952-10.189517-10.037658-23.448986-15.125504-39.407104-15.125504-16.428851 0-29.963674 5.126758-40.22784 15.242138C601.388954 459.768627 596.184166 472.985702 596.184166 488.940032zM701.472358 280.139571c-12.905472-12.755558-29.512294-19.221811-49.358131-19.221811-12.774502 0-24.868352 3.080192-35.940966 9.156506-11.052134 6.063104-19.498906 14.741709-25.100698 25.794458-5.620224 11.080397-8.466125 22.705152-8.466125 34.556006 0 19.377357 6.505472 35.745075 19.339264 48.651059 12.824576 12.908032 29.231923 19.450982 48.763597 19.450982 19.995238 0 36.87639-6.622822 50.177843-19.688448 13.293261-13.065523 20.033024-29.826355 20.033024-49.818624C720.920064 309.33545 714.376806 292.891955 701.472358 280.139571z"  horiz-adv-x="1024" />

    
    <glyph glyph-name="jiajujiafang" unicode="&#58890;" d="M933.803528 458.492444l-42.666667 0c0 86.983111-69.802667 199.168-143.928889 199.168L291.357305 657.660444c-79.36 0-143.928889-64.625778-143.928889-143.985778l0-55.182222-42.666667 0 0 55.182222c0 102.912 83.740444 186.652444 186.595556 186.652444l455.850667 0C855.467528 700.327111 933.803528 555.886222 933.803528 458.492444zM927.943972-100.327111l-153.031111 0 0 143.530667 42.666667 0 0-100.864 67.697778 0 0 260.664889 5.233778 5.973333c109.454222 125.895111 102.684444 165.319111 79.758222 211.000889-7.964444 15.815111-31.288889 18.204444-48.526222 15.416889-33.564444-5.347556-70.314667-30.264889-76.856889-73.955556-5.916444-39.594667-20.878222-67.185778-44.373333-81.863111-27.818667-17.578667-55.808-9.386667-58.993778-8.419556l-6.428444 2.048-4.096 5.404444c-81.863111 107.064889-202.524444 102.115556-203.776 102.001778L524.999972 423.278222c5.745778 0.113778 139.491556 5.859556 234.609778-112.071111 5.290667-0.227556 11.889778 0.398222 18.716444 4.835556 12.060444 7.850667 20.48 25.770667 24.405333 51.768889 9.728 65.024 63.374222 102.001778 112.355556 109.795556 42.382222 6.656 78.165333-8.021333 93.468444-38.513778 32.995556-66.104889 29.582222-123.676444-80.554667-252.017778L928.000861-100.327111zM251.876416-100.327111l-153.031111 0 0 287.402667c-110.136889 128.341333-113.607111 185.969778-80.554667 252.017778C33.59375 469.585778 69.43375 484.263111 111.759083 477.607111c48.924444-7.793778 102.627556-44.771556 112.298667-109.795556 3.925333-26.282667 12.515556-44.316444 24.803556-52.053333 6.656-4.152889 13.425778-4.608 18.318222-4.551111 96.142222 117.703111 258.901333 112.355556 265.898667 112.071111L531.314639 380.668444C529.72175 380.554667 377.487083 385.333333 295.794639 278.609778L291.698639 273.205333 285.213305 271.214222C282.084416 270.247111 254.095083 262.225778 226.219528 279.633778c-23.552 14.734222-38.456889 42.325333-44.373333 81.863111-6.485333 43.690667-43.235556 68.608-76.8 73.955556C87.695083 438.183111 64.370639 435.850667 56.463083 420.035556 33.59375 374.296889 26.823972 334.929778 136.278194 208.977778l5.233778-5.973333 0-260.664889 67.697778 0 0 100.864 42.666667 0L251.876416-100.327111zM132.92175 68.974222l773.688889 0 0-42.666667-773.688889 0 0 42.666667Z"  horiz-adv-x="1027" />

    
    <glyph glyph-name="nvzhuang" unicode="&#58895;" d="M881.436444-147.772444c-57.685333-4.664889-117.873778 25.998222-179.143111 22.414222-61.212444-3.640889-85.219556-65.763556-156.728889-67.185778-71.566222-1.365333-183.523556 20.821333-201.500444 44.771556-3.299556 7.452444-9.443556 49.095111 44.771556 22.414222 0.910222 0.796444 59.107556-24.632889 134.371556-22.414222 75.207111 2.275556 91.648 53.134222 156.728889 67.185778 65.080889 14.051556 122.823111-26.624 179.143111-22.414222 37.319111 2.787556 60.017778 38.513778 67.185778 44.771556-10.638222 150.641778-157.184 274.830222-179.143111 291.043556-14.961778 11.093333-72.021333 38.912-106.780444 97.792-30.094222-15.36-93.013333-30.947556-139.548444-30.606222C456.135111 300.341333 403.569778 314.449778 370.972444 328.956444c-16.782222-34.360889-46.478222-58.197333-94.094222-96.142222-50.176-39.936-177.208889-176.981333-179.655111-288.768 1.820444-9.898667 22.243556-36.750222 67.697778-24.689778 30.606222-7.736889 25.031111-40.789333 0-44.771556-65.080889-10.24-111.957333 25.144889-111.957333 44.771556 0 171.747556 137.386667 294.115556 179.143111 335.872 41.756444 41.699556 111.957333 73.784889 111.957333 156.728889 0 67.356444-89.543111 245.304889-89.543111 335.872 0 0.512 156.728889 44.771556 156.728889 44.771556C434.460444 751.299556 456.817778 703.057778 500.792889 703.057778c43.975111 0 67.015111 45.795556 94.890667 89.543111 0 0 151.438222-43.52 151.438222-44.771556 0-109.681778-89.543111-271.815111-89.543111-335.872 0-77.880889 87.096889-119.182222 134.371556-156.728889 47.274667-37.546667 179.143111-157.866667 179.143111-335.872C971.093333-102.944 923.477333-144.359111 881.436444-147.772444L881.436444-147.772444zM702.293333 725.415111c0.512 2.787556-82.830222 20.650667-89.543111 22.414222-22.300444-46.250667-46.478222-89.543111-111.957333-89.543111-68.039111 0-91.363556 47.616-111.957333 89.543111C385.479111 752.209778 299.804444 726.325333 299.292444 725.415111 298.723556 679.448889 388.835556 457.639111 388.835556 434.371556c0-26.112-1.649778-47.274667-5.063111-65.422222C385.536 368.266667 386.958222 368.096 388.835556 367.185778c26.112-12.174222 53.475556-20.707556 111.957333-22.414222 58.481778-1.649778 100.807111 16.440889 111.957333 22.414222 3.356444 1.820444 6.599111 2.901333 9.728 3.527111-5.973333 18.830222-9.671111 39.879111-9.728 63.601778C612.750222 456.842667 702.293333 677.628444 702.293333 725.415111L702.293333 725.415111zM702.293333 725.415111"  horiz-adv-x="1024" />

    
    <glyph glyph-name="shoucang" unicode="&#58899;" d="M511.660774-26.883021 511.660774-26.883021c-31.445176 0-55.538921 20.462031-70.920236 35.857672-36.400025 36.399001-286.981107 338.052273-306.302151 361.325325-45.419446 45.914726-70.405513 106.513896-70.405513 170.808224 0 64.74663 25.348318 125.750005 71.366398 171.761945l6.472412 6.472412c46.004777 46.025243 107.195418 71.373561 172.283832 71.373561 65.074088 0 126.264729-25.348318 172.283832-71.373561 1.058099-1.058099 2.031263-2.192945 2.90926-3.403516 0.027629-0.007163 8.253988-10.223852 21.394263-10.223852 13.766538 0 19.947308 8.136308 20.6012 9.061376 1.169639 1.920746 2.102894 2.971681 3.702322 4.565992 46.01808 46.025243 107.209744 71.373561 172.283832 71.373561 65.087391 0 126.278031-25.348318 172.282808-71.373561l6.472412-6.472412c46.01808-46.010917 71.366398-107.014292 71.366398-171.761945 0-64.266699-24.972764-124.845403-70.350255-170.752965-19.279089-23.454178-262.608-319.510988-304.492946-361.380584C567.215044-6.419967 543.119253-26.883021 511.660774-26.883021zM314.154491 733.70159c-49.860595 0-96.728018-19.418258-131.971707-54.66911l-6.472412-6.472412c-35.244712-35.251875-54.662971-81.931011-54.662971-131.450844 0-49.51267 19.418258-96.198969 54.662971-131.450844 0.626263-0.6191 1.210571-1.274016 1.781576-1.948375 92.676749-111.656009 275.387048-330.250586 303.559691-358.424252 12.709463-12.709463 23.00904-19.153222 30.609135-19.153222 9.479909 0 21.895683 10.411117 30.636764 19.153222 32.586163 32.599466 211.536834 248.63373 301.598013 358.305549 0.597611 0.724501 1.224898 1.413186 1.87879 2.067079 35.243689 35.251875 54.662971 81.938174 54.662971 131.450844 0 49.51881-19.419282 96.198969-54.662971 131.450844l-6.472412 6.472412c-35.244712 35.250852-82.111113 54.66911-131.971707 54.66911-49.066509 0-95.253434-18.812461-130.301671-53.026704-7.002484-9.368368-27.866674-31.973202-66.285682-31.973202-36.83186 0-59.214636 23.48897-65.742307 31.451316C409.880693 714.693678 363.47171 733.70159 314.154491 733.70159zM188.154799 557.61106c-1.252527 0-2.533706 0.166799-3.800559 0.514723-7.585769 2.088568-12.040221 9.93221-9.952676 17.525142 6.723122 24.484647 19.8767 47.013757 38.000476 65.129346l4.00829 4.00829c36.33044 36.337603 87.958284 51.057863 138.040936 39.378869 7.66968-1.788739 12.444427-9.451256 10.648524-17.120936-1.781576-7.662517-9.493212-12.416797-17.107633-10.648524-40.492226 9.423627-82.125439-2.442632-111.426789-31.764448l-4.00829-4.00829c-14.643512-14.636349-25.25008-32.80208-30.67872-52.532447C200.139761 561.765683 194.40413 557.61106 188.154799 557.61106zM415.128207 620.45741c-3.647063 0-7.294127 1.391696-10.077519 4.176113-4.774747 4.774747-9.980305 9.165754-15.47853 13.063527-6.431479 4.551666-7.934716 13.446243-3.38305 19.869536 4.538363 6.431479 13.431917 7.948019 19.863397 3.38919 6.80601-4.822842 13.251815-10.258645 19.153222-16.168238 5.567809-5.567809 5.567809-14.58723 0-20.155039C422.422334 621.85013 418.77527 620.45741 415.128207 620.45741z"  horiz-adv-x="1024" />

    
    <glyph glyph-name="fankui" unicode="&#58930;" d="M205.406207 252.506177l184.42843-184.412057 405.709185 405.693836L611.131765 658.227642 205.406207 252.506177 205.406207 252.506177 205.406207 252.506177zM113.203248-24.124188l258.181177 73.804936L186.972369 234.056989 113.203248-24.124188 113.203248-24.124188 113.203248-24.124188zM871.608218 619.032968 756.360404 734.298178c-19.10615 19.072381-51.099818 18.039865-71.458495-2.335185l-55.337329-55.280024 184.41615-184.445826 55.331189 55.354725C889.682875 567.961802 890.714368 599.926818 871.608218 619.032968L871.608218 619.032968 871.608218 619.032968zM871.608218 619.032968"  horiz-adv-x="1024" />

    
    <glyph glyph-name="nanzhuang" unicode="&#58919;" d="M957.89442 276.660296 761.313206 674.679335c-0.461511 0.966001-0.923022 1.921769-1.427512 2.871397l-0.236384 0.472767c-5.142114 10.456143-12.345166 19.645432-21.395286 27.331485-19.827581 18.340717-45.538149 28.431539-72.499198 28.431539l-68.495 0c-7.160073 0-14.127765-2.329045-19.84907-6.64535l-65.408709-49.295729-65.403592 49.295729c-5.716188 4.315282-12.688997 6.64535-19.84907 6.64535l-67.254753 0c-22.527063 0-44.062542-6.977925-62.403259-20.198018-14.127765-8.481162-25.414833-20.723997-32.726356-35.522028L66.099441 276.660296c-3.870144-7.841595-4.470825-16.901948-1.663896-25.184589 2.806929-8.287757 8.78713-15.115256 16.633842-18.990516l96.712669-47.76077c15.254425-7.525394 33.745569-2.216481 42.676985 12.270465l32.135908 52.150754 0-108.042715c0-58.941414 47.953152-106.889449 106.899682-106.889449l306.261219 0c58.951647 0 106.904799 47.948035 106.904799 106.889449l0 106.014522 30.884404-50.122561c8.921183-14.486946 27.406187-19.795858 42.671868-12.270465l96.712669 47.76077c7.847735 3.875261 13.826913 10.70276 16.638959 18.990516C962.370361 259.757325 961.76968 268.817678 957.89442 276.660296zM843.941088 257.160173l-71.774697 116.455315 0 25.526373c0 18.21178-14.761192 32.978089-32.978089 32.978089-18.21792 0-32.978089-14.766308-32.978089-32.978089l0-54.512544c0-1.678222 0.251733-3.289929 0.494257-4.901637l0-198.624756c0-22.570042-18.367323-40.933271-40.948621-40.933271L359.494631 100.169653c-22.576181 0-40.943504 18.362206-40.943504 40.933271L318.551126 344.629317l0 20.87954 0 33.633005c0 18.21178-14.766308 32.978089-32.978089 32.978089s-32.978089-14.766308-32.978089-32.978089l0-24.285103-72.53706-117.697609-40.213887 19.860327 183.66095 371.835703c2.222621 4.498454 5.571902 7.080256 7.997138 8.453533 1.207501 0.686638 2.378164 1.454118 3.494591 2.286066 7.192819 5.38873 15.662725 8.233522 24.49795 8.233522l56.219419 0 76.438926-57.615209c11.754718-8.866948 27.953655-8.856715 39.698141 0l76.444043 57.615209 57.459666 0c10.41828 0 20.369933-3.966335 28.002774-11.175527 0.525979-0.488117 1.051959-0.960885 1.599428-1.412163 2.232854-1.846044 3.950985-3.982708 5.206582-6.532787l0.525979-1.051959c0.182149-0.348947 0.461511-0.944512 0.654916-1.288343L884.154975 277.019477 843.941088 257.160173zM577.040319 562.910763c-6.167466 17.138332-25.077142 26.021653-42.205241 19.843954-17.133216-6.172583-26.016537-25.066909-19.843954-42.205241l66.428945-184.385451-69.418023-80.894402-69.424162 80.889285 65.961294 182.89347c6.1777 17.133216-2.705622 36.026518-19.838837 42.210357-17.133216 6.172583-36.032658-2.699482-42.210357-19.838837l-72.477708-200.971198c-4.025687-11.169387-1.738597-23.64963 6.000668-32.661887L486.97914 203.157235c6.263657-7.300266 15.404852-11.502985 25.02393-11.502985 9.619078 0 18.759249 4.202719 25.022906 11.502985l106.959034 124.634602c7.734148 9.012258 10.026354 21.481244 6.000668 32.655747L577.040319 562.910763z"  horiz-adv-x="1024" />

    
    <glyph glyph-name="muyingshipin" unicode="&#58957;" d="M801.834084 491.959827c16.123212 23.240307 25.63689 51.391461 25.63689 81.755002l0 6.888897c0 79.316463-64.538899 143.842059-143.855362 143.842059l-70.189595 0 0 5.213745c0 55.936987-45.497217 101.446483-101.43318 101.446483s-101.434204-45.509497-101.434204-101.446483l0-5.213745-70.189595 0c-79.316463 0-143.842059-64.525596-143.842059-143.842059l0-6.888897c0-30.361495 9.512654-58.514695 25.632797-81.755002-42.888809-19.548218-72.829725-62.726623-72.829725-112.861464l0-318.141804c0-68.414159 55.649438-124.063597 124.051317-124.063597l477.224985 0c68.414159 0 124.063597 55.649438 124.063597 124.063597L874.66995 379.099387C874.668926 429.234227 844.726987 472.411609 801.834084 491.959827zM273.343505 580.603727c0 36.957727 30.068829 67.026556 67.026556 67.026556l108.597347 0c21.217231 0 38.407752 17.191544 38.407752 38.407752l0 43.621497c0 13.57825 11.039427 24.629957 24.617677 24.629957s24.617677-11.05273 24.617677-24.629957l0-43.621497c0-21.217231 17.191544-38.407752 38.407752-38.407752l108.597347 0c36.970006 0 67.038836-30.068829 67.038836-67.026556l0-6.888897c0-36.970006-30.068829-67.038836-67.038836-67.038836L340.370061 506.675994c-36.957727 0-67.026556 30.068829-67.026556 67.038836L273.343505 580.603727zM797.853423 60.957583c0-26.055422-21.191648-47.24707-47.24707-47.24707L273.381367 13.710512c-26.043143 0-47.234791 21.191648-47.234791 47.24707L226.146577 379.099387c0 26.055422 21.191648 47.24707 47.234791 47.24707l477.224985 0c26.055422 0 47.24707-21.191648 47.24707-47.24707L797.853423 60.957583zM326.142012 299.907767l72.115458 0c21.217231 0 38.407752 17.191544 38.407752 38.407752s-17.191544 38.407752-38.407752 38.407752L326.142012 376.72327c-21.217231 0-38.407752-17.191544-38.407752-38.407752S304.925804 299.907767 326.142012 299.907767zM485.050208 261.500015 326.142012 261.500015c-21.217231 0-38.407752-17.191544-38.407752-38.407752s17.191544-38.407752 38.407752-38.407752l158.908196 0c21.217231 0 38.407752 17.191544 38.407752 38.407752S506.267439 261.500015 485.050208 261.500015zM398.257469 146.275737 326.142012 146.275737c-21.217231 0-38.407752-17.191544-38.407752-38.407752s17.191544-38.407752 38.407752-38.407752l72.115458 0c21.217231 0 38.407752 17.191544 38.407752 38.407752S419.4747 146.275737 398.257469 146.275737z"  horiz-adv-x="1024" />

    
    <glyph glyph-name="sousuo" unicode="&#58947;" d="M888.703059 48.841637 733.373365 204.173378c50.040696 59.650565 80.190367 136.551002 80.190367 220.507136 0 189.613522-153.703661 343.318206-343.31616 343.318206-189.616592 0-343.31923-153.703661-343.31923-343.318206s153.703661-343.318206 343.31923-343.318206c85.053118 0 162.867368 30.94171 222.838228 82.163301l155.141406-155.141406c11.174504-11.17655 29.300326-11.17655 40.47483 0C899.859144 19.559731 899.859144 37.665087 888.703059 48.841637zM470.248595 138.583544c-158.006663 0-286.10004 128.090307-286.10004 286.097994 0 158.006663 128.093377 286.099017 286.10004 286.099017s286.079574-128.093377 286.079574-286.099017C756.32817 266.673851 628.254236 138.583544 470.248595 138.583544z"  horiz-adv-x="1024" />

    
    <glyph glyph-name="shouji" unicode="&#58938;" d="M760.672616 833.465758 263.326361 833.465758c-19.780509 0-35.815717-15.783475-35.815717-35.253922l0-828.422649c0-19.470447 16.035208-35.253922 35.815717-35.253922l497.346255 0c19.780509 0 35.815717 15.783475 35.815717 35.253922L796.488333 798.211836C796.488333 817.68126 780.453125 833.465758 760.672616 833.465758zM482.069317 784.859737l59.860343 0c11.019984 0 19.953448-8.933463 19.953448-19.953448 0-11.019984-8.933463-19.953448-19.953448-19.953448l-59.860343 0c-11.019984 0-19.953448 8.933463-19.953448 19.953448C462.115869 775.926274 471.049333 784.859737 482.069317 784.859737zM551.906895-22.487921l-79.81379 0L472.093105 57.325869l79.81379 0L551.906895-22.487921zM736.092801 116.497527c0-19.780509-16.035208-35.815717-35.815717-35.815717L323.722916 80.68181c-19.780509 0-35.815717 16.035208-35.815717 35.815717L287.907199 686.447357c0 19.780509 16.035208 35.815717 35.815717 35.815717l376.554168 0c19.780509 0 35.815717-16.035208 35.815717-35.815717L736.092801 116.497527z"  horiz-adv-x="1024" />

    
    <glyph glyph-name="yingtao" unicode="&#58928;" d="M605.866667 622.933333l-170.666667 0c-10.24 0-17.066667 6.826667-17.066667 17.066667s6.826667 17.066667 17.066667 17.066667l170.666667 0c10.24 0 17.066667-6.826667 17.066667-17.066667S616.106667 622.933333 605.866667 622.933333zM401.066667 366.933333c-8.533333 0-15.36 5.12-17.066667 13.653333-18.773333 81.92 107.52 250.88 122.88 269.653333 5.12 5.12 11.946667 8.533333 18.773333 6.826667 6.826667-1.706667 11.946667-8.533333 11.946667-15.36 5.12-76.8 75.093333-174.08 102.4-206.506667 6.826667 0 11.946667-3.413333 15.36-8.533333 3.413333-5.12 8.533333-17.066667 0-25.6-5.12-5.12-11.946667-6.826667-18.773333-5.12-20.48 6.826667-98.986667 110.933333-124.586667 203.093333-42.666667-61.44-104.106667-163.84-93.866667-209.92 1.706667-8.533333-3.413333-18.773333-13.653333-20.48C402.773333 366.933333 402.773333 366.933333 401.066667 366.933333zM366.933333 110.933333c-75.093333 0-136.533333 61.44-136.533333 136.533333s61.44 136.533333 136.533333 136.533333 136.533333-61.44 136.533333-136.533333S442.026667 110.933333 366.933333 110.933333zM366.933333 349.866667c-56.32 0-102.4-46.08-102.4-102.4 0-56.32 46.08-102.4 102.4-102.4s102.4 46.08 102.4 102.4C469.333333 303.786667 423.253333 349.866667 366.933333 349.866667zM657.066667 145.066667c-75.093333 0-136.533333 61.44-136.533333 136.533333s61.44 136.533333 136.533333 136.533333 136.533333-61.44 136.533333-136.533333S732.16 145.066667 657.066667 145.066667zM657.066667 384c-56.32 0-102.4-46.08-102.4-102.4 0-56.32 46.08-102.4 102.4-102.4s102.4 46.08 102.4 102.4C759.466667 337.92 713.386667 384 657.066667 384z"  horiz-adv-x="1024" />

    
    <glyph glyph-name="7tiantuihuan" unicode="&#59025;" d="M911.872 445.952c-13.312 0-25.6 9.216-28.672 23.04C843.776 643.072 691.2 764.928 512 764.928S180.224 643.072 140.8 468.48c-3.584-15.872-19.456-25.6-34.816-22.016-15.872 3.584-25.6 19.456-22.016 34.816 45.568 201.216 221.696 342.016 428.544 342.016s382.976-140.8 428.544-342.016c3.584-15.872-6.144-31.232-22.016-34.816C915.968 445.952 913.92 445.952 911.872 445.952zM512-55.296c-206.848 0-382.976 140.8-428.544 342.016-3.584 15.872 6.144 31.232 22.016 34.816 15.872 3.584 31.744-6.144 34.816-22.016 39.424-174.592 192.512-296.448 371.2-296.448s331.776 121.856 371.2 296.448c3.584 15.872 19.456 25.6 34.816 22.016 15.872-3.584 25.6-19.456 22.016-34.816C894.976 84.992 718.336-55.296 512-55.296zM450.048 89.6c-4.096 0-8.704 1.024-12.8 3.072-14.848 7.168-20.992 24.576-13.824 38.912l192 402.432L339.968 534.016c-16.384 0-29.184 13.312-29.184 29.184 0 16.384 13.312 29.184 29.184 29.184l322.56 0c10.24 0 19.456-5.12 24.576-13.824 5.12-8.704 6.144-18.944 1.536-28.16l-211.968-444.416C471.552 95.744 461.312 89.6 450.048 89.6zM911.872 445.952c-5.12 0-10.24 1.024-14.848 4.096l-88.576 51.2c-13.824 8.192-18.944 26.112-10.752 39.936 8.192 13.824 26.112 18.944 39.936 10.752l63.488-36.864 36.864 63.488c8.192 13.824 26.112 18.944 39.936 10.752 13.824-8.192 18.944-26.112 10.752-39.936l-51.2-88.576C931.84 451.072 922.112 445.952 911.872 445.952zM60.928 174.592c-5.12 0-10.24 1.024-14.848 4.096-13.824 8.192-18.944 26.112-10.752 39.936l51.2 88.576c4.096 6.656 10.24 11.776 17.92 13.824 7.68 2.048 15.36 1.024 22.016-3.072l88.576-51.2c13.824-8.192 18.944-26.112 10.752-39.936-8.192-13.824-26.112-18.944-39.936-10.752L122.88 252.928 86.016 189.44C80.896 180.224 70.656 174.592 60.928 174.592z"  horiz-adv-x="1024" />

    
    <glyph glyph-name="muyinghehu" unicode="&#58963;" d="M743.032864 710.107219 605.160773 710.107219 605.160773 796.414911c0 19.999496-14.923898 36.271088-33.267685 36.271088L450.060299 832.685999c-18.343787 0-33.267685-16.270569-33.267685-36.271088l0-86.308715L278.919501 710.106196c-19.944238 0-36.170804-16.225543-36.170804-36.169781l0-82.259492c0-19.944238 16.225543-36.170804 36.170804-36.170804l464.113363 0c19.944238 0 36.170804 16.225543 36.170804 36.170804l0 82.259492C779.203668 693.880653 762.978125 710.107219 743.032864 710.107219zM431.117878 796.414911c0 12.100596 8.497535 21.944801 18.941398 21.944801l121.833813 0c10.443863 0 18.941398-9.844206 18.941398-21.944801l0-86.308715L431.117878 710.106196 431.117878 796.414911zM764.877381 591.677946c0-12.045337-9.79918-21.844517-21.844517-21.844517L278.919501 569.833429c-12.045337 0-21.844517 9.79918-21.844517 21.844517l0 82.259492c0 12.045337 9.79918 21.843494 21.844517 21.843494l464.113363 0c12.045337 0 21.844517-9.79918 21.844517-21.843494L764.877381 591.677946zM743.032864 512.10668 278.919501 512.10668c-19.944238 0-36.170804-16.225543-36.170804-36.169781L242.748696-26.748968c0-19.944238 16.225543-36.170804 36.170804-36.170804l464.113363 0c19.944238 0 36.170804 16.225543 36.170804 36.170804L779.203668 475.936899C779.203668 495.880113 762.978125 512.10668 743.032864 512.10668zM764.877381-26.748968c0-12.045337-9.79918-21.844517-21.844517-21.844517L278.919501-48.593486c-12.045337 0-21.844517 9.79918-21.844517 21.844517L257.074983 120.199849l253.900687 0 0 14.326287L257.076006 134.526135 257.076006 303.877171l253.900687 0 0 14.326287L257.076006 318.203458 257.076006 475.936899c0 12.045337 9.79918 21.843494 21.844517 21.843494l464.113363 0c12.045337 0 21.844517-9.79918 21.844517-21.843494L764.878404-26.748968z"  horiz-adv-x="1024" />

    
    <glyph glyph-name="jujia" unicode="&#58912;" d="M860.687 563.538l-48.693 0 4.335 88.817c1.26 25.866-7.645 50.19-25.077 68.492-17.968 18.864-42.799 29.24-69.916 29.24l-420.158 0c-27.118 0-51.941-10.375-69.917-29.24-17.43-18.302-26.338-42.626-25.077-68.492l4.345-88.817-48.703 0c-40.974 0-69.598-34.1-69.598-82.895l0-345.615c0-45.855 25.848-79.558 62.272-83.656-0.009-0.291-0.083-0.544-0.083-0.798 0-17.197 13.922-31.09 31.09-31.09l77.724 0c17.168 0 31.088 13.895 31.088 31.055l435.277 0c0-17.161 13.913-31.055 31.09-31.055l77.724 0c17.168 0 31.09 13.895 31.09 31.09 0 0.325-0.092 0.618-0.099 0.98 35.986 4.861 62.279 38.89 62.279 83.476l0 345.615c-0.001 48.032-29.858 82.894-70.997 82.894zM260.131 97.191l-98.303 0c-15.772 0-22.955 19.626-22.955 37.837l0 345.615c0 16.725 6.005 36.278 22.955 36.278l94.194 0c1.189 0 2.332-0.29 3.492-0.507 13.994-2.394 25.276-18.756 25.276-38.056 0-0.543 0.019-1.088 0.064-1.632l14.539-203.882 12.298-175.654-51.56 0zM664.063 97.191l-305.629 0-9.795 139.923 325.21 0-9.787-139.923zM685.783 404.824c-0.109-0.69-0.299-1.342-0.343-2.067l-8.336-119.026-331.731 0-8.362 119.534c-0.046 0.58-0.209 1.088-0.291 1.669l-5.306 74.332c-0.417 46.109-33.438 83.475-74.197 84.201l-4.452 91.175c-0.635 12.969 3.728 25.068 12.262 34.029 9.088 9.541 21.921 14.783 36.151 14.783l420.158 0c14.229 0 27.063-5.242 36.15-14.783 8.534-8.961 12.895-21.06 12.262-34.029l-4.444-91.175c-40.766-0.726-73.789-38.091-74.207-84.201l-5.315-74.441zM885.04 135.028c0-18.792-8.363-37.837-24.353-37.837l-149.872 0 11.31 161.543 0 0.036 15.544 217.957c0.037 0.543 0.055 1.088 0.055 1.632 0 19.3 11.273 35.661 25.276 38.056 1.162 0.218 2.314 0.507 3.502 0.507l94.185 0c16.825 0 24.353-18.211 24.353-36.278l0-345.615z"  horiz-adv-x="1024" />

    
    <glyph glyph-name="jingxuan" unicode="&#59212;" d="M859.189822-126.721598c-5.113608 0-7.670412 0-12.78402 2.556804L677.656739-24.449438c-12.78402 7.670412-15.340824 23.011236-10.227216 35.795256 7.670412 12.78402 23.011236 15.340824 35.795256 10.227216l122.726591-71.590512-46.022472 324.714107c0 7.670412 2.556804 15.340824 7.670412 20.454432l201.987516 204.54432-294.032459 23.011236c-7.670412 0-17.897628 5.113608-20.454432 12.78402L537.032519 814.182272l-138.067416-278.691635c-5.113608-7.670412-12.78402-12.78402-20.454432-15.340824l-296.589263-23.011236 201.987515-204.54432c5.113608-5.113608 7.670412-12.78402 7.670412-20.454432L248.113668-52.574282l276.134831 161.078652c12.78402 7.670412 28.124844 2.556804 35.795256-10.227216 7.670412-12.78402 2.556804-28.124844-10.227216-35.795256L227.659236-124.164794c-7.670412-5.113608-17.897628-5.113608-28.124844 0-7.670412 5.113608-12.78402 15.340824-10.227216 25.56804l51.13608 365.622971-232.669164 232.669164c-7.670412 7.670412-10.227216 17.897628-5.113608 28.124844 2.556804 10.227216 12.78402 15.340824 23.011236 15.340824l334.941323 25.56804 153.40824 311.930087c2.556804 10.227216 12.78402 15.340824 20.454432 15.340824 10.227216 0 17.897628-5.113608 23.011236-15.340824L716.008799 571.285893l334.941323-25.56804c10.227216 0 17.897628-7.670412 23.011236-15.340824 2.556804-10.227216 0-20.454432-5.113608-28.124844l-232.669164-232.669164 51.13608-365.622971c2.556804-10.227216-2.556804-20.454432-10.227216-25.56804-7.670412-2.556804-12.78402-5.113608-17.897628-5.113608"  horiz-adv-x="1076" />

    
    <glyph glyph-name="dingbu" unicode="&#58900;" d="M512 683.576889L0 171.562667l38.698667-38.712889L512 606.151111l473.301333-473.301333L1024 171.562667z"  horiz-adv-x="1024" />

    
    <glyph glyph-name="anquan" unicode="&#58910;" d="M515.038 827.504c-98.858-1.251-59.037-75.835-346.991-77.109v-443.378c0-191.637 302.412-366.268 346.991-366.268S862.029 115.38 862.029 307.017V750.395c-283.135-0.532-251.74 78.314-346.991 77.109zM823.474 305.76c0-153.941-286.85-326.258-308.437-326.457-21.492-0.199-307.232 173.721-308.437 326.457V700.945c255.96 1.135 220.563 67.613 308.437 68.727 84.668 1.074 56.76-69.202 308.437-68.727V305.76zM382.718 432.32c-7.528 7.528-19.734 7.528-27.262 0-7.528-7.528-7.528-19.734 0-27.262l122.681-122.681c7.528-7.528 19.734-7.528 27.262 0l207.774 207.774c7.528 7.528 7.528 19.734 0 27.262-7.528 7.528-19.734 7.528-27.262 0L491.768 323.27l-109.05 109.05z"  horiz-adv-x="1024" />

    
    <glyph glyph-name="shoubiao" unicode="&#59042;" d="M513.038 670.864c42.179 0 82.236-9.106 118.295-25.464v84.031h24.23l46.989-130.09a278.848 278.848 0 0 0 13.328-12.514c51.917-51.917 84.053-123.638 84.053-202.836s-32.136-150.924-84.053-202.842a290.762 290.762 0 0 0-13.691-12.841l-46.626-129.072h-24.23v83.34c-36.059-16.358-76.116-25.471-118.295-25.471-43.313 0-84.386 9.615-121.216 26.808v-84.677h-24.215l-48.021 132.946a279.023 279.023 0 0 0-9.375 8.967c-51.917 51.917-84.053 123.644-84.053 202.842s32.136 150.919 84.053 202.836a285.667 285.667 0 0 0 8.997 8.625l48.399 133.979h24.215v-85.367c36.815 17.2 77.903 26.8 121.216 26.8z m-107.452 22.107h212.522V801.064c0 18.786-15.364 34.155-34.142 34.155H439.741c-18.793 0-34.155-15.37-34.155-34.155v-108.093z m212.522-616.302H405.586v-108.1c0-18.786 15.362-34.148 34.155-34.148h144.224c18.778 0 34.142 15.362 34.142 34.148v108.1h0.001zM476.382 372.851l23.313-23.451 14.041 13.931a20.595 20.595 0 0 1 3.358 0.385l17.513-23.588 13.285 9.847-17.223 23.197a20.523 20.523 0 0 1 3.038 9.97l71.654 71.139-23.328 23.452-74.255-73.72-87.729 118.208-13.285-9.847 88.049-118.645a21.492 21.492 0 0 1-1.701-4.273l-16.73-16.605z m335.483 68.261h29.098c12.63 0 22.965-10.326 22.965-22.963v-76.561c0-12.63-10.335-22.957-22.965-22.957h-29.098V441.112zM659.11 530.055c-37.384 37.375-89.024 60.506-146.071 60.506-57.032 0-108.674-23.132-146.056-60.506-37.382-37.382-60.506-89.03-60.506-146.064 0-57.04 23.124-108.688 60.506-146.07 37.382-37.382 89.024-60.506 146.056-60.506 57.047 0 108.688 23.124 146.071 60.506 37.382 37.382 60.506 89.03 60.506 146.07 0 57.034-23.124 108.682-60.506 146.064z"  horiz-adv-x="1024" />

    
    <glyph glyph-name="pei" unicode="&#58935;" d="M904.533333 738.133333c-106.666667 12.8-268.8 38.4-371.2 119.466667L512 874.666667l-21.333333-17.066667c-102.4-85.333333-264.533333-106.666667-371.2-119.466667l-59.733334-8.533333v-25.6c0-520.533333 89.6-686.933333 443.733334-806.4h17.066666c354.133333 119.466667 443.733333 285.866667 443.733334 806.4v25.6l-59.733334 8.533333z m0-89.6c0-448-76.8-593.066667-384-695.466666h-17.066666c-307.2 102.4-384 247.466667-384 695.466666v21.333334L170.666667 678.4c93.866667 12.8 230.4 29.866667 324.266666 102.4l17.066667 17.066667 17.066667-12.8C618.666667 712.533333 759.466667 691.2 853.333333 682.666667l51.2-8.533334v-25.6zM371.2 405.333333c0-85.333333-8.533333-200.533333-110.933333-273.066666-4.266667 8.533333-17.066667 21.333333-25.6 29.866666 93.866667 59.733333 102.4 170.666667 102.4 243.2V563.2h34.133333v-157.866667zM298.666667 285.866667h-34.133334V644.266667h183.466667v-358.4h-34.133333V601.6H298.666667v-315.733333z m93.866666-12.8c25.6-29.866667 55.466667-76.8 68.266667-102.4l-29.866667-21.333334c-12.8 29.866667-42.666667 72.533333-68.266666 106.666667l29.866666 17.066667z m392.533334 174.933333v-38.4h-324.266667v38.4h192c17.066667 34.133333 34.133333 81.066667 42.666667 115.2l46.933333-12.8c-12.8-34.133333-29.866667-72.533333-46.933333-106.666667h89.6zM768 567.466667h-294.4v42.666666h132.266667c-4.266667 21.333333-12.8 46.933333-21.333334 64l42.666667 4.266667c8.533333-21.333333 17.066667-51.2 25.6-72.533333H768v-38.4z m-273.066667-209.066667h256v-221.866667h-42.666666v25.6h-170.666667v-29.866666h-42.666667v226.133333z m46.933334 93.866667c-4.266667 25.6-17.066667 68.266667-29.866667 102.4l38.4 8.533333c12.8-29.866667 25.6-76.8 29.866667-102.4l-38.4-8.533333z m-4.266667-136.533334v-115.2h170.666667v115.2h-170.666667z"  horiz-adv-x="1024" />

    
    <glyph glyph-name="guojihua" unicode="&#59108;" d="M162.816 224h199.68c-5.472 40.192-8.96 83.2-10.08 128H129.28c3.744-45.344 15.36-88.48 33.504-128z m37.248-64a384.32 384.32 0 0 1 223.712-149.824c-20.64 38.272-37.92 89.6-50.368 149.824H200.064z m661.12 64c18.144 39.52 29.76 82.656 33.504 128h-223.104a1166.624 1166.624 0 0 0-10.08-128h199.68z m-37.248-64H650.56c-12.448-60.192-29.728-111.552-50.368-149.824A384.32 384.32 0 0 1 823.904 160z m-399.232 64h174.592c4.544 39.52 7.424 82.656 8.384 128h-191.36c0.96-45.344 3.84-88.48 8.384-128z m9.312-64c17.44-96.896 45.856-160 77.984-160 32.128 0 60.544 63.104 77.984 160h-155.968z m-304.704 256h223.104c1.12 44.8 4.608 87.808 10.08 128h-199.68a381.632 381.632 0 0 1-33.504-128z m765.376 0a381.632 381.632 0 0 1-33.504 128h-199.68c5.472-40.192 8.96-83.2 10.08-128h223.104zM416.32 416h191.36a1379.936 1379.936 0 0 1-8.384 128h-174.592a1379.936 1379.936 0 0 1-8.384-128zM200.064 608h173.344c12.448 60.192 29.728 111.552 50.368 149.824A384.32 384.32 0 0 1 200.096 608z m623.872 0a384.32 384.32 0 0 1-223.712 149.824c20.64-38.272 37.92-89.6 50.368-149.824h173.344zM434.016 608h155.968C572.544 704.896 544.128 768 512 768c-32.128 0-60.544-63.104-77.984-160zM512-64C264.576-64 64 136.57600000000002 64 384S264.576 832 512 832s448-200.576 448-448-200.576-448-448-448z"  horiz-adv-x="1024" />

    
    <glyph glyph-name="shoucang1" unicode="&#58904;" d="M768-34.133333c-4.266667 0-8.533333 0-12.8 2.133333l-243.2 128-243.2-128c-8.533333-4.266667-19.2-4.266667-27.733333 2.133333-8.533333 6.4-12.8 17.066667-10.666667 25.6L277.333333 266.666667l-196.266666 192c-6.4 6.4-10.666667 17.066667-6.4 27.733333 2.133333 10.666667 10.666667 17.066667 21.333333 19.2l270.933333 38.4L488.533333 789.333333c4.266667 8.533333 12.8 14.933333 23.466667 14.933334 10.666667 0 19.2-6.4 23.466667-14.933334l121.6-245.333333 270.933333-38.4c10.666667-2.133333 19.2-8.533333 21.333333-19.2 2.133333-10.666667 0-21.333333-6.4-27.733333l-196.266666-192 46.933333-270.933334c2.133333-10.666667-2.133333-19.2-10.666667-25.6-4.266667-4.266667-10.666667-4.266667-14.933333-4.266666z m-256 185.6c4.266667 0 8.533333 0 12.8-2.133334l206.933333-108.8-40.533333 230.4c-2.133333 8.533333 2.133333 17.066667 8.533333 23.466667l168.533334 164.266667L635.733333 490.666667c-8.533333 2.133333-17.066667 6.4-19.2 14.933333L512 716.8l-104.533333-209.066667c-4.266667-8.533333-10.666667-12.8-19.2-14.933333L155.733333 458.666667l168.533334-164.266667c6.4-6.4 8.533333-14.933333 8.533333-23.466667l-40.533333-230.4 206.933333 108.8c4.266667 2.133333 8.533333 2.133333 12.8 2.133334z"  horiz-adv-x="1024" />

    
    <glyph glyph-name="world" unicode="&#58913;" d="M496 896C222.048 896 0 673.952 0 400S222.048-96 496-96 992 126.048 992 400 769.952 896 496 896z m431.2-480h-191.872c-1.76 70.88-14.368 138.592-36.736 200.576a522.688 522.688 0 0 1 119.552 70.304A429.856 429.856 0 0 0 927.2 416zM478.304-31.104000000000042c-53.184 44.288-97.792 101.792-130.432 168.576A495.904 495.904 0 0 0 480 159.20000000000005v-190.368l-1.696 0.064z m35.328 862.208c60.352-50.24 109.6-117.536 142.912-196.032-45.632-15.584-94.112-24.64-144.576-26.24V831.2l1.664-0.096z m53.312-5.44a430.816 430.816 0 0 0 229.248-115.648 489.504 489.504 0 0 0-109.696-63.936c-29.12 69.024-69.984 130.048-119.552 179.584zM480 831.2v-222.368a495.744 495.744 0 0 0-144.576 26.24c33.312 78.496 82.56 145.792 142.912 196.032L480 831.2zM305.472 646.048a490.72 490.72 0 0 0-109.664 63.936 430.72 430.72 0 0 0 229.248 115.648c-49.6-49.504-90.432-110.528-119.584-179.584z m17.888-40.48c49.344-17.12 101.92-27.104 156.64-28.768V416H288.672c1.728 67.008 13.6 131.04 34.688 189.568zM480 384v-192.8a525.152 525.152 0 0 1-145.248-24.608A601.12 601.12 0 0 0 288.672 384H480z m-54.944-409.664a429.792 429.792 0 0 0-209.44 97.664 486.368 486.368 0 0 0 102.016 54.4 554.144 554.144 0 0 1 107.424-152.064z m86.944-5.536v190.368c45.824-1.472 90.24-8.64 132.128-21.728-32.672-66.784-77.248-124.288-130.432-168.576a31.2 31.2 0 0 1-1.696-0.064z m162.368 157.6a490.24 490.24 0 0 0 102.016-54.4 430.08 430.08 0 0 0-209.44-97.664 554.816 554.816 0 0 1 107.424 152.064z m-17.12 40.192A525.568 525.568 0 0 1 512 191.20000000000005V384h191.328a601.792 601.792 0 0 0-46.08-217.408zM512 416V576.8a526.08 526.08 0 0 1 156.64 28.736c21.056-58.528 32.928-122.56 34.688-189.568H512zM173.888 686.88a523.2 523.2 0 0 1 119.52-70.304C271.04 554.592 258.432 486.88 256.672 416H64.8a429.728 429.728 0 0 0 109.088 270.88zM64.8 384h191.872a631.168 631.168 0 0 1 48.096-228.384 519.36 519.36 0 0 1-113.216-61.792A430.816 430.816 0 0 0 64.8 384z m735.648-290.144a520.192 520.192 0 0 1-113.248 61.792 631.2 631.2 0 0 1 48.128 228.384h191.872a430.848 430.848 0 0 0-126.752-290.176z"  horiz-adv-x="1024" />

    
    <glyph glyph-name="liwu" unicode="&#58898;" d="M723.2 395H289c-44.1 0-79.9 35.8-79.9 79.9 0 44.1 35.8 79.9 79.9 79.9h434.1c44.1 0 79.9-35.8 79.9-79.9 0-44.1-35.7-79.9-79.8-79.9zM723.2 389H289c-47.3 0-85.9 38.5-85.9 85.9s38.5 85.9 85.9 85.9h434.1c47.3 0 85.9-38.5 85.9-85.9S770.5 389 723.2 389zM289 548.8c-40.7 0-73.9-33.1-73.9-73.9S248.3 401 289 401h434.1c40.7 0 73.9 33.1 73.9 73.9 0 40.7-33.1 73.9-73.9 73.9H289zM685.5 64.6H324.6c-41.1 0-74.5 33.3-74.5 74.5V360.6c0 19 15.4 34.5 34.5 34.5h440.9c19 0 34.5-15.4 34.5-34.5V139c0-41.1-33.3-74.4-74.5-74.4zM685.5 58.6H324.6c-44.4 0-80.5 36.1-80.5 80.5V360.6c0 22.3 18.2 40.5 40.5 40.5h440.9c22.3 0 40.5-18.2 40.5-40.5V139c0-44.3-36.1-80.4-80.5-80.4zM284.6 389.1c-15.7 0-28.5-12.8-28.5-28.5V139c0-37.8 30.7-68.5 68.5-68.5h360.9c37.8 0 68.5 30.7 68.5 68.5V360.6c0 15.7-12.8 28.5-28.5 28.5H284.6zM801.5 480.4c0.1-1.8 0.2-3.7 0.2-5.5 0-22-8.9-42-23.4-56.5-14.4-14.4-34.4-23.4-56.5-23.4h-0.4c-0.9 0.1-1.8 0.1-2.7 0.1h-231v20.3c105.7 0.5 229.5 1.1 242 1.1 30.2 0 64.5 23.4 71.8 63.9zM721.8 554.7c42.2 0 76.8-32.8 79.7-74.3-7.3-40.5-41.6-63.9-71.7-63.9-12.5 0-136.3-0.6-242-1.1V554.7h234zM487.8 371.6c110.7 4.4 232.6 7.7 262.1 8.5 5.4-6.8 8.7-15.4 8.7-24.8v-210.8c0-3-0.2-6-0.5-8.9-7.4-17.3-36.6-44.9-74.3-44.9h-215V370.8c6.3 0.3 12.7 0.6 19 0.8zM721.5 395c11.5-0.8 21.7-6.4 28.5-15-29.6-0.8-151.4-4-262.1-8.5V395h233.6zM443.9 395h43.9v-23.4c-6.4-0.3-12.7-0.5-19-0.8v7.8l-26-2v-6.9c-47.5-2.1-89.9-4.4-117.7-6.8-18.1-1.6-40.4-15.8-40.4-34.2 0-56.1-1.9-148.8-1.9-166.1 0-33.2 11-72 69-72h91v-6l26-3v9h215c37.8 0 66.9 27.6 74.3 44.9-4.4-39.9-38.3-71-79.4-71h-350c-44.1 0-79.9 35.8-79.9 79.9V355.2c0 21.2 16.6 38.6 37.5 39.8h157.6zM487.8 415.4v-20.3h-43.9c0.1 4.9 0.2 11.9 0.3 20.1 13.9 0.1 28.6 0.1 43.6 0.2zM487.8 554.7v-139.3c-15-0.1-29.7-0.1-43.6-0.2 0.3 23.1 0.6 55.6 0.6 77.4 0 37-27 17-50-15-21.2-29.6-21-34-37-28s-20 42-21 51-20 3-38-11c-17.3-13.5-29.8-6.4-29 17 0.6 17.1 10.9 36 18.8 48.1h199.2zM468.9 90.6v-9l-26 3v6h26zM468.9 370.8v-280.2h-26V369.7c8.5 0.4 17.2 0.8 26 1.1zM468.9 378.6v-7.8c-8.8-0.4-17.5-0.8-26-1.1v6.9l26 2zM444.8 492.6c0-21.8-0.3-54.4-0.6-77.4-62-0.3-109.4-0.6-109.4-0.6-60 0-102 16.7-102 72s54.9 68.1 54.9 68.1h0.9c-7.9-12.2-18.2-31.1-18.8-48.1-0.8-23.4 11.7-30.5 29-17 18 14 37 20 38 11s5-45 21-51 15.8-1.5 37 28c23 32 50 52 50 15zM444.2 415.2c-0.1-8.2-0.2-15.2-0.3-20.1H288.7c-0.8 0-1.6 0-2.4-0.1-43.5 0.8-78.4 36.2-78.4 79.8 0 22 8.9 42 23.4 56.5 14.5 14.4 34.4 23.4 56.5 23.4 0 0-54.9-12.8-54.9-68.1s42-72 102-72c0 0 47.3 0.3 109.3 0.6zM442.8 369.7v-279.1h-91c-58 0-69 38.8-69 72 0 17.3 1.9 110 1.9 166.1 0 18.4 22.3 32.6 40.4 34.2 27.9 2.4 70.2 4.7 117.7 6.8zM721.8 394.5H286.3c-21.2 0.4-41 8.9-55.9 24-14.9 15.1-23.1 35.1-23.1 56.4 0 21.5 8.4 41.6 23.5 56.8 15.2 15.2 35.4 23.5 56.8 23.5h434.1c42.1 0 77.3-32.8 80.2-74.8 0.1-1.8 0.2-3.7 0.2-5.6 0-21.5-8.4-41.6-23.5-56.8-15.1-15.1-35.3-23.5-56.8-23.5zM287.7 554.2c-21.2 0-41.1-8.3-56.1-23.2-15-15-23.2-34.9-23.2-56.1 0-21 8.1-40.7 22.8-55.7 14.7-14.9 34.3-23.3 55.2-23.7h435.5c21.2 0 41.1 8.3 56.1 23.2 15 15 23.2 34.9 23.2 56.1 0 1.9-0.1 3.8-0.2 5.5-2.8 41.4-37.6 73.9-79.2 73.9H287.7zM678.8 64.1H328.7c-44.3 0-80.4 36-80.4 80.4V355.2c0 21.3 16.7 39 37.9 40.3 0.8 0 1.6 0.1 2.4 0.1h430.1c1 0 1.9 0 2.7-0.1 11.3-0.7 21.8-6.3 28.9-15.1 5.8-7.2 8.8-15.9 8.8-25.1v-210.8c0-3-0.2-6-0.5-8.9-4.4-40.8-38.8-71.5-79.8-71.5zM288.7 394.6c-0.8 0-1.6 0-2.4-0.1-20.8-1.2-37-18.5-37-39.3v-210.8c0-43.8 35.6-79.4 79.4-79.4h350.1c40.5 0 74.4 30.3 78.9 70.5 0.3 2.9 0.5 5.9 0.5 8.8V355.2c0 9-3 17.5-8.6 24.5-6.9 8.7-17.1 14-28.2 14.8-0.8 0.1-1.7 0.1-2.6 0.1H288.7zM487.3 560.6h1v-190h-1zM541.8 561.6v-15s33.6-14.2 57-41c21-24 36-63 48-63 16 0 30 37 31 54s15 12 30 0 28.6-14.1 31 3c3 21-37 69-37 69M724.6 389h-437c-46.5 0-84.4 37.9-84.4 84.4v2.9c0 46.5 37.9 84.4 84.4 84.4h437c46.5 0 84.4-37.9 84.4-84.4v-2.9c0-46.5-37.8-84.4-84.4-84.4z m-437 159.8c-39.9 0-72.4-32.5-72.4-72.4v-2.9c0-39.9 32.5-72.4 72.4-72.4h437c39.9 0 72.4 32.5 72.4 72.4v2.9c0 39.9-32.5 72.4-72.4 72.4h-437zM681.6 58.6h-353c-46.5 0-84.4 37.9-84.4 84.4V356.7c0 24.5 19.9 44.4 44.4 44.4h433c24.5 0 44.4-19.9 44.4-44.4V143c0-46.5-37.9-84.4-84.4-84.4z m-393 330.5c-17.9 0-32.4-14.5-32.4-32.4V143c0-39.9 32.5-72.4 72.4-72.4h353c39.9 0 72.4 32.5 72.4 72.4V356.7c0 17.9-14.5 32.4-32.4 32.4h-433zM763.5 630.7c0.9-42.1-29.2-86.3-77.8-86.3-92.8 0-194.2 4.6-194.2 4.6 2.2 4.6 4.7 10 7.5 15.9 29.2-0.9 99.9-3 124-3 29.6-0.1 95.7-23.7 140.5 68.8zM674.8 705.6c61.5 0 87.9-36.6 88.7-75-44.8-92.5-110.9-68.8-140.5-68.8-24 0-94.8 2.1-124 3 23.8 50 71.9 140.8 175.8 140.8z m0.9-106.8c11.3-0.1 27.9 3.5 27.9 25.7 0 27.3-15.7 41.5-53.8 34.5-40.7-7.5-89.7-61.4-94.1-77.1-3.5-12.4 40.2 3.8 62.2 13.4 12.3-0.4 28-0.7 43.2-0.7 5.7 0 10.6 1.6 14.6 4.2zM703.6 624.6c0-22.2-16.6-25.8-27.9-25.7 18.3 11.9 17.9 44.7-17.7 44.7-28.5 0-48.6-24.1-58.2-40.1-2-3.3 0.3-7.4 4.1-7.6 3.7-0.1 8.5-0.3 14-0.5-22-9.6-65.7-25.7-62.2-13.4 4.5 15.7 53.5 69.6 94.1 77.1 38.2 7 53.8-7.2 53.8-34.5zM685.7 538.3c-91.9 0-193.5 4.5-194.5 4.6l-9.1 0.4 3.9 8.2c1.2 2.4 2.4 5 3.7 7.9 1.2 2.5 2.5 5.2 3.8 8 13.8 29 31.6 62.4 58.9 90.7 34.3 35.5 75.4 53.5 122.3 53.5 29.9 0 54.6-8.6 71.3-24.8 14.6-14.2 23-34.1 23.4-56.1 0.5-25.2-9.4-50.8-26.6-68.4-15.4-15.7-35.2-24-57.1-24z m-184.9 16.2c26.9-1.1 109.2-4.2 184.9-4.2 18.7 0 35.5 7.1 48.6 20.5 15 15.3 23.7 37.6 23.2 59.7-0.7 33.4-22.8 69.1-82.7 69.1-43.4 0-81.7-16.8-113.6-49.8-26.2-27.1-43.4-59.5-56.7-87.6-1.4-2.7-2.6-5.2-3.7-7.7zM661.1 588.6c-12.7 0-27.3 0.2-43.4 0.7-5.5 0.2-10.3 0.3-14 0.5-3.9 0.2-7.4 2.3-9.3 5.8-1.9 3.4-1.8 7.5 0.2 10.9 4.5 7.6 12.3 18.5 23.4 27.6 12.5 10.2 25.9 15.4 40 15.4 17.7 0 30.6-7.8 34.5-21 3.7-12.6-2-27.2-13.5-34.7-5.2-3.4-11.4-5.2-17.9-5.2z m-55.3 13.2c3.4-0.1 7.6-0.3 12.3-0.4 15.9-0.5 30.4-0.7 43-0.7 4.2 0 8 1.1 11.3 3.2 7.1 4.6 10.8 13.8 8.6 21.3-2.4 8-10.5 12.4-23 12.4-9.1-0.1-32.3-3.6-52.2-35.8zM259.5 648.7c-11.6-46.4 19.8-104.4 75.5-104.4 92.8 0 194.2 4.6 194.2 4.6-2.2 4.6-4.7 10-7.5 15.9-29.2-0.9-99.9-3-124-3-29.8 0-100.8-22.8-138.2 86.9zM259.5 648.7C297 539 367.9 561.8 397.7 561.8c24 0 94.8 2.1 124 3-23.8 50-71.9 140.8-175.8 140.8-51.8 0-78.7-25.9-86.4-56.9z m100-54.1c-23.1 0-34.1 26.5-20.8 40.5 2.2 10.6 10.6 24.5 40 23.1 41.3-2 81.8-60.5 86.3-76.2 3.5-12.4-40.2 3.8-62.2 13.4-12.4-0.4-28.1-0.8-43.3-0.8zM338.6 635.1c4.7 5 12.5 8.4 24 8.4 28.5 0 48.6-24.1 58.2-40.1 2-3.3-0.3-7.4-4.1-7.6-3.7-0.1-8.5-0.3-14-0.5 22-9.6 65.7-25.7 62.2-13.4-4.5 15.7-45 74.3-86.3 76.2-29.3 1.5-37.8-12.3-40-23zM334.9 538.3c-25.2 0-47.8 11.2-63.6 31.5-17.6 22.6-24.4 53.4-17.7 80.4 4.4 17.9 14.5 32.9 29 43.5 16.3 11.9 37.6 18 63.2 18 46.8 0 88-18 122.3-53.5 27.4-28.3 45.2-61.8 59-90.7 1.3-2.8 2.6-5.5 3.8-8.1 1.3-2.8 2.5-5.4 3.7-7.8l3.9-8.2-9.1-0.4c-1-0.1-102.6-4.7-194.5-4.7z m-69.6 109c-5.9-23.5 0.1-50.4 15.5-70.1 13.5-17.3 32.8-26.8 54.2-26.8 75.7 0 158 3.1 184.9 4.2-1.1 2.4-2.4 5-3.6 7.7-13.4 28.1-30.6 60.5-56.8 87.6-32 33.1-70.2 49.8-113.6 49.8-43-0.1-72.3-19.2-80.6-52.4zM359.5 588.6c-13.3 0-24.8 7.5-29.9 19.5-4.8 11.1-2.9 23 4.7 31.1 4.4 4.7 12.9 10.3 28.3 10.3 14.1 0 27.5-5.2 40-15.4 11.1-9.1 18.8-20 23.4-27.6 2-3.4 2.1-7.4 0.2-10.9-1.9-3.5-5.3-5.6-9.3-5.8-3.7-0.1-8.5-0.3-14-0.5-16.1-0.4-30.7-0.7-43.4-0.7z m3.1 48.9c-8.8 0-15.6-2.2-19.6-6.5-5.2-5.5-4.7-12.9-2.4-18.1 2.6-5.9 8.9-12.3 18.9-12.3 12.6 0 27.1 0.2 43 0.7 4.7 0.2 8.9 0.3 12.3 0.4-19.9 32.3-43.1 35.8-52.2 35.8z m-24-2.4zM732.8 505.2c0.6-2.3-2.4-4-4.6-2.6-9.6 5.9-40.2 18.9-57.4 19.8-3.4 0.2-7.3-1.1-7.4-4.5-0.1-13.2-2.3-33.4-11.8-50-1.8-3.1-3.4-3.7-5.4-0.6-12.1 19.2-46 82.8-127.3 96.3-20.9 3.5-16.3 14.5-5.6 25.2 11.5-4.7 34-13.9 60.3-24.7 38.1-15.7 54.9-35.9 59.4-40.3 4.5-4.5 9-7.8 12.3 4.5 3.4 12.3 13.5 17.3 28 13.4 14.7-3.9 38.8-9.5 51.4-13.9 3.2-7 5.9-14.5 8.1-22.6zM724.8 527.8c-12.6 4.3-36.7 10-51.4 13.9-14.5 3.9-24.7-1.1-28-13.4-3.4-12.3-7.8-9-12.3-4.5-4.5 4.5-21.3 24.7-59.4 40.3-26.3 10.8-48.9 20.1-60.3 24.7 12.1 12 32 23.7 32.2 23.7 7.4-0.4 136.9 6.9 179.2-84.7zM648.7 459.3c-2.1 0-5.1 0.9-7.6 4.8-0.8 1.3-1.7 2.8-2.8 4.5-14.1 23-47.2 77-120.4 89.2-4 0.7-16.1 2.7-19.1 12-2.1 6.7 1.2 14.3 10.2 23.3 6.6 6.6 15.3 12.9 21.4 17.1 12.3 8.4 13.5 8.4 15 8.4H548.1c30.1 0.3 57.9-3.2 82.8-10.3 48.4-13.8 81.8-40 99.2-77.9 3.4-7.4 6.2-15.3 8.4-23.6 0.8-3.3-0.4-6.8-3.2-8.9-3-2.2-7.1-2.4-10.3-0.4-8.7 5.4-38.4 18.1-54.6 18.9h-1.1c-0.2-12-2.3-33.4-12.6-51.4-2.1-3.7-4.8-5.6-7.9-5.7h-0.1z m2.8 10.9zM547.1 606.5c-4.6-2.7-20-12.4-29.5-21.9-8.1-8.1-7.2-11.1-7.2-11.1 0.2-0.7 2.3-2.6 9.6-3.9 33.7-5.6 63.5-20.3 88.5-43.6 20.4-19 32.7-39 40.1-51 7.5 15.6 8.8 33.3 8.9 43 0 2.7 1.1 5.2 3.1 7.1 2.5 2.4 6.3 3.6 10.6 3.4 15.9-0.8 40.5-10.6 53.7-17.1-1.6 4.8-3.4 9.5-5.5 14-15.9 34.6-46.8 58.6-91.6 71.4-23.7 6.8-50.4 10.1-79.3 9.8-0.6-0.1-1.1-0.1-1.4-0.1z m184.2-98.8z m-218 81.1zM282.4 505.2c-0.6-2.3 2.4-4 4.6-2.6 9.6 5.9 40.2 18.9 57.5 19.8 3.4 0.2 7.3-1.1 7.3-4.5 0.1-13.2 2.3-33.4 11.8-50 1.8-3.1 3.4-3.7 5.4-0.6 12.1 19.2 46 82.8 127.2 96.3 20.9 3.5 16.3 14.5 5.6 25.2-11.5-4.7-34-13.9-60.3-24.7-38.1-15.7-54.9-35.9-59.4-40.3-4.5-4.5-9-7.8-12.3 4.5-3.4 12.3-13.5 17.3-28 13.4-14.7-3.9-38.8-9.5-51.4-13.9-3.2-7-5.9-14.5-8-22.6zM290.4 527.8c12.6 4.3 36.7 10 51.4 13.9 14.5 3.9 24.7-1.1 28-13.4 3.4-12.3 7.8-9 12.3-4.5 4.5 4.5 21.3 24.7 59.4 40.3 26.3 10.8 48.9 20.1 60.3 24.7-12.1 12-32 23.7-32.2 23.7-7.4-0.4-136.9 6.9-179.2-84.7zM366.4 459.3h-0.2c-3.1 0.1-5.8 2-7.9 5.7-10.3 18-12.3 39.3-12.5 51.3-0.3 0-0.6 0.1-1 0-16.2-0.8-45.9-13.6-54.6-18.9-3.2-2-7.3-1.8-10.3 0.4-2.8 2.1-4.1 5.5-3.2 8.8 2.1 8.2 4.9 16.1 8.4 23.6 17.5 37.9 50.9 64.1 99.2 77.9 24.8 7.1 52.7 10.5 82.7 10.3H469.7c1.5 0 2.7 0 15-8.4 6.1-4.2 14.8-10.5 21.4-17.1 9-9 12.3-16.6 10.2-23.3-3-9.4-15.1-11.4-19.1-12-73.2-12.2-106.3-66.1-120.4-89.2-1-1.7-1.9-3.1-2.7-4.4-2.6-3.9-5.6-4.7-7.7-4.7z m-21.3 69.1c3.8 0 7.3-1.2 9.6-3.4 2-1.9 3.1-4.4 3.1-7.1 0.1-9.6 1.4-27.4 8.9-43 7.4 12 19.6 32 40 51 25 23.3 54.8 38 88.6 43.6 7.3 1.2 9.4 3.2 9.6 3.9 0 0 0.9 3.1-7.2 11.1-9.5 9.5-24.9 19.2-29.5 21.9H467c-28.9 0.3-55.6-3-79.3-9.8-44.9-12.8-75.7-36.8-91.6-71.4-2.1-4.5-3.9-9.2-5.4-14 13.2 6.6 37.8 16.3 53.7 17.1 0 0.1 0.3 0.1 0.7 0.1z m-61.3-20.7zM481.8 547.7h-1.1c-10.7 0-19.4 8.7-19.4 19.4v40c0 10.7 8.7 19.4 19.4 19.4h6.5c-3-5.5-7-15.7-7-29.9 0-22.4-0.9-31.4 11.9-31.4h38.5c4.5 0 11.9 1.2 17.1 4.2v-2.3c0-10.7-8.7-19.4-19.4-19.4h-46.5zM547.8 607.1v-37.7c-5.2-3-12.7-4.2-17.1-4.2h-38.5c-12.8 0-11.9 9-11.9 31.4 0 14.2 4 24.3 7 29.9h41.2c10.6-0.1 19.3-8.7 19.3-19.4zM546.9 85.4v-21.3h-84.6V544.3h19.6v-441c0-13.4 0-17.9 12.8-17.9h52.2zM546.9 544.3v-458.9h-52.2c-12.8 0-12.8 4.5-12.8 17.9v441h65zM552.9 58.2h-96.6V550.3h96.6v-492.1z m-84.6 12h72.6V538.3h-72.6v-468.1zM528.4 541.7h-47.7c-14 0-25.4 11.4-25.4 25.4v40c0 14 11.4 25.4 25.4 25.4h47.7c14 0 25.4-11.4 25.4-25.4v-40c0-14-11.4-25.4-25.4-25.4z m-47.7 78.7c-7.4 0-13.4-6-13.4-13.4v-40c0-7.4 6-13.4 13.4-13.4h47.7c7.4 0 13.4 6 13.4 13.4v40c0 7.4-6 13.4-13.4 13.4h-47.7z"  horiz-adv-x="1024" />

    
    <glyph glyph-name="quanqiu" unicode="&#59336;" d="M135.525379 433.615925l48.323492 162.365624 37.944118-44.08599C421.621777 736.967278 760.990367 832.357645 996.507911 648.227365c25.341104-19.807075 10.593245-39.50261-14.763209-19.696558C766.209218 797.066954 445.193588 672.583028 263.900931 504.310893l37.838718-45.516569-166.21427-25.178399z m752.947196-104.340185l-48.325539-162.365623-37.937978 44.084966C602.382316 25.924387 263.013727-69.468026 27.493113 114.6643c-25.341104 19.805029-10.600408 39.501587 14.764232 19.695535 215.528321-168.532054 536.544973-44.049151 717.84377 124.218891l-37.841787 45.516569 166.213247 25.180445zM530.036759 585.795579v-184.620442h180.270376a537.443434 537.443434 0 0 1-47.707463 204.392725c-43.182412-11.653388-87.65828-18.344774-132.562913-19.772283z m-35.459536-404.493712V365.884447H314.309917c2.33518-71.297694 18.742839-140.49352 47.451637-203.973171a580.420162 580.420162 0 0 0 132.815669 19.390591z m-278.691769-80.731535A579.145125 579.145125 0 0 0 327.683479 151.648559c-29.658424 66.977303-46.546013 139.629852-48.85561 214.234864H71.007075c-0.994652 0-1.97293 0.077771-2.919487 0.228197 3.928465-94.491906 38.853835-181.198513 95.124308-250.621513-32.232034 11.654411-62.839061 27.778615-90.686237 49.012175-34.495583 65.851669-53.967014 140.456681-53.967015 219.499765 0.002047 133.314018 55.383267 254.039349 144.908055 341.42543C252.793988 812.625271 376.141024 866.596378 512.309038 866.596378c105.970308 0 204.169645-32.696614 284.621817-88.284542-36.703873 5.222944-74.069825 6.800879-111.343678 4.994748-42.529544 17.555806-88.447248 28.831595-136.52924 32.663868a579.067354 579.067354 0 0 0 44.940448-43.71146 698.506392 698.506392 0 0 1-40.228133-8.981541 554.803789 554.803789 0 0 1-23.733493 22.473806v-28.977927c-11.91433-3.457745-23.740656-7.25318-35.459536-11.312627v40.290554a543.821689 543.821689 0 0 1-61.697054-64.871343c-23.02946-10.372211-45.568757-21.875173-67.541144-34.351297A575.396762 575.396762 0 0 0 475.542743 815.971475c-99.172499-7.890698-189.095351-47.506895-259.122101-108.396562a542.717544 542.717544 0 0 1 100.460839-50.889939c-11.652364-7.740273-23.117464-15.786513-34.380973-24.056857a579.833809 579.833809 0 0 0-86.093649 45.93203 17.991734 17.991734 0 0 0-5.24648 5.260807C118.43006 609.815597 72.36193 510.588864 68.045633 400.915218c0.967022 0.149402 1.952464 0.259919 2.961442 0.259919h25.391246l-0.176008-0.560771 3.410673 0.560771h394.944237V585.722924a574.697845 574.697845 0 0 0-69.648127 6.275925c19.242211 10.750833 38.977655 20.635952 59.129584 29.466043 55.623744-2.782364 108.220554 2.367926 162.638846 16.274629a545.262501 545.262501 0 0 1-15.884751 27.628189l6.728225 1.085726c10.448959 1.582028 20.975689 2.822273 31.56177 3.799528a562.172603 562.172603 0 0 0 12.281697-22.401151 545.035328 545.035328 0 0 1 60.159027 23.827637c20.682-1.126658 41.268833-3.607147 61.501603-7.553008a580.551145 580.551145 0 0 0-106.274229-48.223208c29.767918-67.050981 46.703602-139.854979 49.015245-214.72912H953.606907c1.017164 0 1.989303-0.110517 2.959396-0.25992-3.622497 92.047232-36.638382 176.687788-90.13877 245.280889 31.586329-11.950146 61.545605-28.262637 88.772659-49.571923l0.661054-0.492209c32.146077-64.04656 50.198185-136.019635 50.198186-212.129928 0-133.312995-55.387361-254.039349-144.904985-341.424407-89.335476-87.198817-212.685582-141.172994-348.843363-141.172994-102.374417 0-197.506911 30.520046-276.381148 82.728 37.287157-4.774737 75.194436-5.750969 112.933893-3.347227 39.350138-15.18481 81.471383-25.033089 125.406947-28.640237a576.560259 576.560259 0 0 0-40.921933 39.652013 698.881944 698.881944 0 0 1 40.33251 9.209737 536.838662 536.838662 0 0 1 20.897917-19.656649v25.407618c11.918423 3.457745 23.743726 7.25318 35.459536 11.312628v-36.720246a542.226358 542.226358 0 0 1 57.135164 59.270799 798.788152 798.788152 0 0 1 68.666778 34.466931 575.291362 575.291362 0 0 0-105.481169-122.942831c98.022305 8.082056 186.957669 47.132366 256.47993 107.08264a542.689915 542.689915 0 0 1-96.399344 49.42559 844.207507 844.207507 0 0 1 34.093424 24.052764 576.568445 576.568445 0 0 0 83.472967-45.10213 17.849494 17.849494 0 0 0 4.573146-4.32039c73.019914 73.889723 119.392989 173.11748 123.951809 282.830011-0.94758-0.149402-1.922789-0.228197-2.921534-0.228196H530.039829v-184.615326a574.99665 574.99665 0 0 0 74.166015-7.183595 701.01451 701.01451 0 0 0-56.884455-29.014766c-56.80873 3.721757-114.468849-1.50221-169.632106-15.486685a541.779174 541.779174 0 0 1 18.032666-31.117656c-2.874461-0.450254-5.760179-0.940417-8.64385-1.353832a513.27913 513.27913 0 0 0-29.565304-3.645009c-5.030563 8.605988-9.849302 17.2877-14.435751 26.117792a541.742335 541.742335 0 0 1-67.898278-27.208634c-19.960571 1.392717-39.806532 4.09731-59.293312 8.193596z"  horiz-adv-x="1024" />

    
    <glyph glyph-name="xiezi" unicode="&#58888;" d="M641.06 267.76a10 10 0 0 1 10-10h192.57a10 10 0 0 1 0 20H651.06a10 10 0 0 1-10-10zM885.39 257.76h19.72a10 10 0 0 1 0 20h-19.72a10 10 0 0 1 0-20zM1026.67 600.28a15 15 0 0 1-12.35 3.2c-10.68-2-29.23-9.73-66.75-53.5-12.16-14.19-22.69-28-29-36.5l-163.96 47.59c-5.56 26.75-23 55.72-52 86.27a389.28 389.28 0 0 1-47.09 42.16 15 15 0 0 1-18.15-0.32c-0.93-0.73-94-74-200.81-149.13-176.93-124.45-253.83-158-287.2-164.16-54.54-10.12-97.68-41.74-124.75-91.43C4.47 247.49 0.35 213.59 0.19 212.17a0.28 0.28 0 0 1 0-0.09c0-0.31 0-0.63-0.06-0.94s0-0.43 0-0.64v-130.11a15 15 0 0 1 15-15h1002a15 15 0 0 1 15 15V588.74a15 15 0 0 1-5.46 11.54z m-56.32-69.82c13.69 16 24.08 26.09 31.74 32.5v-337.52h-0.66c-1.34 173.23-40.95 243.65-60.47 267.88 5.73 7.8 16.72 22.35 29.39 37.14z m-50.05-48.73a14.71 14.71 0 0 1 4.86-0.57c6.62-8.18 15.9-22.8 24.65-45 25-63.26 31.1-147.83 31.62-210.74H175.32c10.63 36 33.45 61 40.48 68.11 15.65 2.35 79.59 15.3 177.7 79.35 99.27 64.81 243.4 169.17 270.39 188.77l69.94-25.37a14.26 14.26 0 0 1 3.23-1.37zM172.16 195.44v-100.05h-57.34V195.44z m20 0h57.33v-100.05h-57.33z m77.33 0h57.34v-100.05h-57.34z m77.34 0h57.33v-100.05h-57.33z m77.33 0h359.29v-100.05H424.16z m379.29 0h57.34v-100.05h-57.34z m77.34 0h57.34v-100.05h-57.34zM646.7 658.4c24.13-19.58 65.59-59.51 76.91-97.12l-56.37 20.45a10.08 10.08 0 0 1-2.88 1l-79 28.68c28.11 21.26 49.8 38.01 61.34 46.99zM453.83 515.51c41.33 29.08 80.63 57.88 113.4 82.37a10 10 0 0 1 3.84-2.53l70.11-25.44c-43.36-31.38-169.29-122-258.62-180.27C326.89 353.3 283 334.39 256 324.93c-19.08-6.68-32.66-9.72-39.82-11L189 356.64c57.33 22.13 146.12 75.36 264.83 158.87zM51 270.11c22.93 42.08 57.88 67.75 103.89 76.29a150 150 0 0 1 14.61 3.6l29-45.53c-11-11.73-33.91-39.79-43.91-79H33.4A198.54 198.54 0 0 0 51 270.11z m-20.91-74.67h64.73v-100.05H30.09z m972-100.05h-44V195.44h44zM540.23 525.46a13.92 13.92 0 1 1-13.92 13.92 13.92 13.92 0 0 1 13.92-13.92zM472.79 477.94a13.92 13.92 0 1 1-13.92 13.92 13.92 13.92 0 0 1 13.92-13.92zM401.74 427.79a13.92 13.92 0 1 1-13.92 13.92 13.92 13.92 0 0 1 13.92-13.92zM329.88 382.61A13.92 13.92 0 1 1 316 396.52a13.92 13.92 0 0 1 13.88-13.91zM255 344.68a13.92 13.92 0 1 1-13.92 13.92A13.92 13.92 0 0 1 255 344.68z"  horiz-adv-x="1032" />

    
    <glyph glyph-name="yingtao1" unicode="&#58887;" d="M781.226667-27.733333c-109.226667 0-197.973333 88.746667-197.973334 197.973333s88.746667 197.973333 197.973334 197.973333 197.973333-88.746667 197.973333-197.973333-88.746667-197.973333-197.973333-197.973333z m0 379.306666c-99.84 0-180.906667-81.066667-180.906667-180.906666s81.066667-180.906667 180.906667-180.906667 180.906667 81.066667 180.906666 180.906667-81.066667 180.906667-180.906666 180.906666zM275.626667-27.733333c-110.933333 0-201.386667 90.453333-201.386667 201.386666 0 110.933333 90.453333 201.386667 201.386667 201.386667s201.386667-90.453333 201.386666-201.386667c0-110.933333-90.453333-201.386667-201.386666-201.386666z m0 385.706666c-101.546667 0-184.32-82.773333-184.32-184.32 0-101.546667 82.773333-184.32 184.32-184.32s184.32 82.773333 184.32 184.32c0 101.546667-82.773333 184.32-184.32 184.32zM729.6 276.906667c-2.986667 0-5.973333 1.706667-7.253333 4.266666L517.12 631.466667l-190.293333-337.066667c-2.133333-4.266667-7.68-5.546667-11.52-3.413333-4.266667 2.133333-5.546667 7.68-3.413334 11.52l204.8 363.093333 220.16-375.893333c2.56-4.266667 0.853333-9.386667-2.986666-11.52-1.28-0.853333-2.56-1.28-4.266667-1.28zM517.12 640H283.733333c-4.693333 0-8.533333 3.84-8.533333 8.533333s3.84 8.533333 8.533333 8.533334h233.386667c4.693333 0 8.533333-3.84 8.533333-8.533334s-3.84-8.533333-8.533333-8.533333zM340.48 578.133333c-100.266667 0-179.626667 65.28-183.04 68.266667l-4.693333 3.84 4.693333 3.84c3.413333 2.986667 82.773333 68.266667 183.04 68.266667s179.626667-65.28 183.04-68.266667l4.693333-3.84-4.693333-3.84c-3.413333-2.986667-82.773333-68.266667-183.04-68.266667zM175.36 649.813333c18.346667-13.653333 86.186667-60.16 165.12-60.16 78.933333 0 146.773333 46.506667 165.12 60.16-18.346667 13.653333-86.186667 60.16-165.12 60.16-79.36 0-146.773333-46.08-165.12-60.16z"  horiz-adv-x="1024" />

    
    <glyph glyph-name="jiancha" unicode="&#59120;" d="M953.304-22.875L704.735 225.68c57.772 64.356 93.2 149.156 93.2 242.437 0 200.822-162.826 363.58-363.62 363.58-200.766 0-363.539-162.758-363.62-363.58 0.081-200.808 162.854-363.539 363.62-363.539 86.151 0 165.175 30.102 227.481 80.142l248.405-248.417 43.103 40.822zM127.045 467.653c0.356 169.955 137.779 307.46 307.734 307.787 169.982-0.327 307.405-137.832 307.76-307.787-0.355-169.97-137.778-307.434-307.76-307.72-169.955 0.286-307.378 137.75-307.734 307.72zM228.181 422.09c25.534 40.88 45.057 88.61 58.504 143.207h-54.486v26.626h58.093v81.064h28.256v-81.064h54.042v-26.626h-54.042v-59.707l17.75 12.91c14.523-17.751 27.274-34.426 38.316-50.01l-22.18-17.354c-9.428 15.867-20.725 32.4-33.886 49.612v-221.85h-28.256V503.976c-13.701-47.857-30.123-86.997-49.202-117.372-3.226 11.833-7.53 23.667-12.909 35.485z m287.616 247.67l-5.252-8.053c28.508-51.638 69.103-93.057 121.818-124.239-7.246-8.067-14.65-17.213-22.18-27.434-52.43 37.116-91.569 78.66-117.388 124.634-31.99-51.89-68.692-95.049-110.112-129.475-6.455 8.606-14.143 17.071-23.002 25.408 50.024 37.923 89.29 84.308 117.8 139.157h38.316z m-153.3-344.475h153.68c14.522 39.266 29.583 89.275 45.184 150.057l32.683-9.286c-18.035-56.733-33.887-103.656-47.587-140.771h75.81v-28.635h-259.77v28.635z m19.776 133.524l27.844 8.069c10.188-29.853 20.693-66.288 31.45-109.32l-29.836-8.875c-8.892 40.073-18.701 76.776-29.458 110.126z m27.844 66.145h165.387v-28.239H410.117v28.24z m48.79-50.009l28.256 6.851c10.473-37.114 19.206-74.213 26.2-111.328l-30.25-7.673c-6.708 42.225-14.777 79.593-24.206 112.15z"  horiz-adv-x="1024" />

    
    <glyph glyph-name="jujia1" unicode="&#59369;" d="M240.57856 272.09728c36.98688 140.36992-125.60384 170.8032-137.216 58.01984-8.45824-82.944 40.48896-179.42528 68.66944-221.47072 4.79232-1.31072 9.35936-2.64192 14.21312-3.82976h17.32608v-26.7264c0-12.00128 15.29856-21.77024 34.2016-21.77024 18.98496 0 34.26304 9.76896 34.26304 21.77024v26.7264h479.86688v-26.7264c0-12.00128 15.44192-21.77024 34.34496-21.77024s34.26304 9.76896 34.26304 21.77024v26.7264h15.50336c6.144 2.4576 10.8544 6.59456 16.9984 9.1136 29.4912 55.95136 85.44256 149.25824 63.6928 237.30176-14.62272 58.9824-111.55456 71.33184-132.3008 0-9.15456-31.68256 14.336-50.42176-9.8304-84.48 0 0-244.10112 127.24224-533.93408 5.28384m24.71936 31.68256c4.096 80.03584-37.96992 110.26432-93.04064 126.5664C138.8544 696.60672 692.30592 693.18656 809.1648 567.33696c27.97568-30.22848 43.95008-85.25824 44.09344-137.05216-55.5008-15.85152-101.29408-42.22976-93.10208-126.5664 0 0-239.8208 107.8272-494.81728 0"  horiz-adv-x="1024" />

    
    <glyph glyph-name="kouhong-" unicode="&#58891;" d="M422 0.8H271c-37.2 0-67.5 30.3-67.5 67.5V346.7c0 37.2 30.3 67.5 67.5 67.5h151c37.2 0 67.5-30.3 67.5-67.5v-278.4c0-37.2-30.3-67.5-67.5-67.5zM271 384.3c-20.7 0-37.5-16.8-37.5-37.5v-278.4c0-20.7 16.8-37.5 37.5-37.5h151c20.7 0 37.5 16.8 37.5 37.5V346.7c0 20.7-16.8 37.5-37.5 37.5H271zM426.4 385.4H266.6c-8.3 0-15 6.7-15 15V560.2c0 8.3 6.7 15 15 15h159.8c8.3 0 15-6.7 15-15v-159.8c0-8.3-6.8-15-15-15z m-144.8 30h129.8V545.2H281.6v-129.8zM393.1 545.2h-93.2c-8.3 0-15 6.7-15 15v112c0 4.4 1.9 8.5 5.2 11.4l93.2 80c4.4 3.8 10.7 4.7 16 2.2 5.3-2.4 8.7-7.8 8.7-13.6v-192c0.1-8.3-6.6-15-14.9-15z m-78.2 30h63.2V719.6l-63.2-54.2v-90.2zM753 0.8H602c-37.2 0-67.5 30.3-67.5 67.5V346.7c0 37.2 30.3 67.5 67.5 67.5h151c37.2 0 67.5-30.3 67.5-67.5v-278.4c0-37.2-30.3-67.5-67.5-67.5zM602 384.3c-20.7 0-37.5-16.8-37.5-37.5v-278.4c0-20.7 16.8-37.5 37.5-37.5h151c20.7 0 37.5 16.8 37.5 37.5V346.7c0 20.7-16.8 37.5-37.5 37.5H602z"  horiz-adv-x="1024" />

    
    <glyph glyph-name="cangku" unicode="&#58902;" d="M558.54595 181.993H372.36495c-19.27 0-34.91-15.477-34.91-34.584 0-19.083 15.64-34.606 34.91-34.606h186.181c19.27 0 34.91 15.5 34.91 34.606 0 19.107-15.64 34.584-34.91 34.584m0 325.818H372.36495c-19.27 0-34.91-15.476-34.91-34.583 0-19.084 15.64-34.584 34.91-34.584h186.181c19.27 0 34.91 15.5 34.91 34.584 0 19.13-15.64 34.583-34.91 34.583m476.556-67.258L576.65195 829.905a81.548 81.548 0 0 1-106.03 0L12.17195 440.553a34.374 34.374 0 0 1-3.77-48.757 35.142 35.142 0 0 1 49.246-3.723l128.535 109.126v-497.967c0-44.497 36.538-80.687 81.454-80.687h395.637c44.916 0 81.454 36.213 81.454 80.71V241.338c0 19.13-15.639 34.607-34.909 34.607s-34.909-15.5-34.909-34.584v-242.129a11.59 11.59 0 0 0-11.636-11.543H267.63695A11.59 11.59 0 0 0 256.00095-0.791V552.634c0 1.234-0.233 2.35-0.372 3.538l260.445 221.184a11.636 11.636 0 0 0 15.127 0l260.445-221.138c-0.14-1.21-0.372-2.327-0.372-3.584V-46.87c0-19.084 15.639-34.56 34.909-34.56s34.909 15.476 34.909 34.583V497.175l128.535-109.149c6.61-5.585 14.662-8.331 22.714-8.331a34.91 34.91 0 0 1 26.531 12.101 34.374 34.374 0 0 1-3.77 48.757m-476.556-95.651H372.36495c-19.27 0-34.91-15.5-34.91-34.607 0-19.083 15.64-34.583 34.91-34.583h186.181c19.27 0 34.91 15.5 34.91 34.583 0 19.13-15.64 34.584-34.91 34.584"  horiz-adv-x="1047" />

    
    <glyph glyph-name="huoyuan" unicode="&#58885;" d="M492.23 386.428h39.42V-86.61h-39.42zM942.799 627.481l-6.701 12.417-1.971-0.985c-15.505 18.579-35.937 32.559-59.292 39.975L601.227 840.152c-25.598 14.968-56.361 23.807-89.187 23.807s-63.59-8.838-90.038-24.264L122.473 666.902c-21.248-12.543-38.15-30.442-49.143-51.873l14.257 25.264-6.504-12.812c-13.995-20.124-22.388-45.059-22.473-71.95l0.004-335.848c0.068-47.075 25.477-88.2 63.311-110.473l325.959-188.132c18.356-10.737 40.417-17.077 63.959-17.077s45.602 6.34 64.568 17.406l324.802 187.508c38.513 22.579 63.983 63.741 64.058 110.857V556.133c-0.219 26.913-8.728 51.796-23.094 72.27z m-800.617 5.321l300.182 173.25c19.94 11.667 43.904 18.556 69.477 18.556s49.538-6.889 70.139-18.912l299.521-172.894c13.071-7.793 23.67-18.469 31.15-31.199L511.94 408.897 125.232 619.793c10.45 10.275 23.483 17.957 38.034 21.983z m93.819-118.259l98.55-53.808v-197.099l-98.55 55.385z m689.848-295.649c-0.01-32.57-17.573-61.034-43.743-76.45L556.09-44.824c-12.698-7.435-27.961-11.826-44.249-11.826s-31.551 4.39-44.669 12.053l-324.99 187.806c-26.546 15.623-44.094 44.03-44.151 76.541V556.132c0.083 11.172 2.238 21.817 6.098 31.604l92.452-51.708v-239.87L373.97 193.864V439.253l137.969-75.292 408.193 222.722c3.603-9.213 5.699-19.879 5.718-31.032z"  horiz-adv-x="1024" />

    
    <glyph glyph-name="huaban" unicode="&#58893;" d="M512 128a256 256 0 0 0-153.386667 460.16A256 256 0 0 0 768 384a256 256 0 0 0-256-256z m0 469.333333a213.333333 213.333333 0 1 1 128-42.666666 210.773333 210.773333 0 0 1-128 42.666666zM652.8 549.973333A21.333333 21.333333 0 0 0 640 554.666667a213.333333 213.333333 0 0 1-256 0 21.333333 21.333333 0 0 0-34.346667 16.853333v211.2a21.333333 21.333333 0 0 0 21.333334 21.333333H652.8a21.333333 21.333333 0 0 0 21.333333-21.333333v-211.413333a21.333333 21.333333 0 0 0-21.333333-21.333334zM512 640a251.52 251.52 0 0 0 119.466667-29.653333V761.386667H392.533333v-151.253334A251.52 251.52 0 0 0 512 640zM652.8-36.053333H371.2a21.333333 21.333333 0 0 0-21.333333 21.333333v211.413333A21.333333 21.333333 0 0 0 384 213.333333a213.333333 213.333333 0 0 1 256 0 21.333333 21.333333 0 0 0 34.346667-16.853333v-211.413333a21.333333 21.333333 0 0 0-21.546667-21.12z m-260.266667 42.666666h238.933334V157.866667a258.346667 258.346667 0 0 0-238.933334 0zM629.333333 362.666667H512a21.333333 21.333333 0 0 0 0 42.666666h117.333333a21.333333 21.333333 0 0 0 0-42.666666zM512 362.666667a21.333333 21.333333 0 0 0-21.333333 21.333333v140.8a21.333333 21.333333 0 0 0 42.666666 0V384a21.333333 21.333333 0 0 0-21.333333-21.333333z"  horiz-adv-x="1024" />

    
    <glyph glyph-name="zhanghao" unicode="&#58989;" d="M605.556364-76.986182H422.446545c-178.082909 0-318.789818 0-318.789818 97.838546v17.780363c0 172.590545 142.987636 313.018182 318.789818 313.018182h183.109819c175.662545 0 318.650182-140.427636 318.650181-313.018182v-17.826909c-0.046545-97.792-147.688727-97.792-318.650181-97.792z m-183.109819 358.818909c-137.262545 0-248.971636-109.102545-248.971636-243.2v-17.826909c0-28.020364 168.122182-28.020364 248.971636-28.020363h183.109819c61.533091 0 248.832 0 248.832 28.020363v17.826909c0 134.097455-111.616 243.2-248.832 243.2H422.446545z m82.292364 71.773091c-140.381091 0-254.603636 112.267636-254.603636 250.181818S364.357818 853.969455 504.738909 853.969455s254.603636-112.221091 254.603636-250.181819-114.222545-250.181818-254.603636-250.181818zM320 603.787636c0-99.421091 82.897455-180.363636 184.785455-180.363636s184.785455 80.896 184.785454 180.363636-82.897455 180.363636-184.785454 180.363637-184.785455-80.942545-184.785455-180.363637z"  horiz-adv-x="1024" />

    
    <glyph glyph-name="wodezuji" unicode="&#58901;" d="M514.9-26.9a377.76 377.76 0 0 0-374.48 328.27 14.17 14.17 0 0 0 28.11 3.63c22.62-173 171.53-303.55 346.37-303.55 192.62 0 349.33 156.71 349.33 349.33S707.52 700.12 514.9 700.12c-156.4 0-294.82-105.12-336.63-255.62a14.17 14.17 0 0 0-27.27 7.59 375.21 375.21 0 0 0 51.15 110.44A377 377 0 0 0 514.9 728.47a377.69 377.69 0 1 0 0-755.37zM480.29 576m15 0l0 0q15 0 15-15l0-253.63q0-15-15-15l0 0q-15 0-15 15l0 253.63q0 15 15 15ZM480.37 292.37m0 15l0 0q0 15 15 15l242.02 0q15 0 15-15l0 0q0-15-15-15l-242.02 0q-15 0-15 15ZM95.771963 555.336048m13.681802 6.148846l0 0q13.681802 6.148846 19.830647-7.532957l45.456365-101.144999q6.148846-13.681802-7.532956-19.830647l0 0q-13.681802-6.148846-19.830647 7.532956l-45.456365 101.144999q-6.148846 13.681802 7.532956 19.830648ZM153.593714 426.844439m-6.148846 13.681802l0 0q-6.148846 13.681802 7.532957 19.830647l101.664908 45.690022q13.681802 6.148846 19.830647-7.532957l0 0q6.148846-13.681802-7.532956-19.830647l-101.664908-45.690021q-13.681802-6.148846-19.830648 7.532956Z"  horiz-adv-x="1024" />

    
    <glyph glyph-name="gouwu" unicode="&#59020;" d="M512 864a181.333333 181.333333 0 0 0 181.034667-170.666667h147.797333l46.442667-789.333333H136.725333l46.442667 789.333333h147.797333A181.333333 181.333333 0 0 0 512 864z m268.501333-234.666667l-87.189333 0.021334L693.333333 533.333333h-64v96.021334h-234.666666V533.333333h-64v96.021334l-87.168-0.021334-38.890667-661.333333h614.784l-38.890667 661.333333zM512 800a117.333333 117.333333 0 0 1-116.864-106.666667h233.728A117.333333 117.333333 0 0 1 512 800z"  horiz-adv-x="1024" />

    
    <glyph glyph-name="liwu1" unicode="&#59031;" d="M426.666667 800c33.621333 0 63.957333-14.144 85.333333-36.821333A116.885333 116.885333 0 0 0 597.333333 800h5.226667a112.106667 112.106667 0 0 0 101.376-160H821.333333A117.333333 117.333333 0 0 0 874.666667 418.133333V0a42.666667 42.666667 0 0 0-42.666667-42.666667H192a42.666667 42.666667 0 0 0-42.666667 42.666667V418.133333A117.333333 117.333333 0 0 0 202.666667 640h117.397333a112.106667 112.106667 0 0 0 96.746667 159.914667l4.629333 0.085333H426.666667zM405.333333 405.333333h-192v-384h192V405.333333z m149.333334-384V575.808h-85.333334V21.333333h85.333334z m256 384h-192v-384h192V405.333333zM202.666667 576a53.333333 53.333333 0 0 1-3.498667-106.56L202.666667 469.333333H405.333333v106.645334L202.666667 576z m618.666666 0l-202.666666-0.021333V469.333333h202.666666a53.333333 53.333333 0 1 1 0 106.666667zM426.666667 736h-5.226667a48.106667 48.106667 0 0 1-4.117333-96.021333L480 640v42.666667l-0.106667 3.498666A53.333333 53.333333 0 0 1 426.666667 736z m175.893333 0H597.333333a53.333333 53.333333 0 0 1-53.333333-53.333333v-42.666667l62.677333-0.021333a48.106667 48.106667 0 0 1-4.117333 96.021333z"  horiz-adv-x="1024" />

    
    <glyph glyph-name="youhuiquan" unicode="&#59584;" d="M821.333333 757.333333c64.8 0 117.333333-52.533333 117.333334-117.333333v-149.333333a32 32 0 0 0-32-32 74.666667 74.666667 0 0 1 0-149.333334 32 32 0 0 0 32-32v-149.333333c0-64.8-52.533333-117.333333-117.333334-117.333333H202.666667c-64.8 0-117.333333 52.533333-117.333334 117.333333V277.333333a32 32 0 0 0 32 32 74.666667 74.666667 0 0 1 0 149.333334 32 32 0 0 0-32 32V640c0 64.8 52.533333 117.333333 117.333334 117.333333h618.666666z m0-64H202.666667a53.333333 53.333333 0 0 1-53.333334-53.333333v-121.045333C210.485333 504.512 256 449.568 256 384c0-65.568-45.514667-120.512-106.666667-134.954667V128a53.333333 53.333333 0 0 1 53.333334-53.333333h618.666666a53.333333 53.333333 0 0 1 53.333334 53.333333V249.045333C813.514667 263.488 768 318.432 768 384c0 65.568 45.514667 120.512 106.666667 134.954667V640a53.333333 53.333333 0 0 1-53.333334 53.333333zM384.853333 568.586667a32 32 0 0 0 45.066667-4.096L512 465.984l82.08 98.506667a32 32 0 1 0 49.173333-40.981334L571.413333 437.333333H618.666667a32 32 0 0 0 31.946666-30.122666L650.666667 405.333333a32 32 0 0 0-32-32h-69.333334v-42.666666H618.666667a32 32 0 0 0 31.946666-30.122667L650.666667 298.666667a32 32 0 0 0-32-32h-69.333334v-42.666667a32 32 0 0 0-30.122666-31.946667L517.333333 192a32 32 0 0 0-32 32v42.666667H405.333333a32 32 0 0 0-31.946666 30.122666L373.333333 298.666667a32 32 0 0 0 32 32h80v42.666666H405.333333a32 32 0 0 0-31.946666 30.122667L373.333333 405.333333a32 32 0 0 0 32 32h47.232l-71.818666 86.186667a32 32 0 0 0 2.581333 43.722667z"  horiz-adv-x="1024" />

    
    <glyph glyph-name="baobao" unicode="&#58884;" d="M839.96 473.12h59.88v-19.84h-59.88zM247.77 473.12h532.86v-19.84H247.77zM123.63 473.12h97.25v-19.84h-97.25zM929.66 526.1H94.14c-15.07 0-27.34-12.26-27.34-27.34v-363.77c0-10.43 2.76-20.71 7.99-29.73l71.46-123.43c15.92-27.5 45.54-44.58 77.32-44.58h576.68c31.77 0 61.4 17.08 77.32 44.58l71.46 123.43c5.22 9.02 7.99 19.3 7.99 29.73V498.76c-0.02 15.08-12.28 27.34-27.36 27.34z m4.66-391.11c0-6.44-1.71-12.79-4.93-18.37l-71.46-123.43c-11.88-20.52-33.99-33.26-57.69-33.26H223.56c-23.71 0-45.81 12.75-57.69 33.26L94.41 116.62a36.676 36.676 0 0 0-4.93 18.37V498.76c0 2.57 2.09 4.66 4.66 4.66h107.45v-366.4l-15.35-128.78 22.52-2.68 15.43 129.45c0.05 0.45 0.08 0.89 0.08 1.34V503.43h575.45v-367.07c0-0.45 0.03-0.9 0.08-1.34l15.43-129.45 22.52 2.68-15.35 128.78v366.4h107.26c2.57 0 4.66-2.09 4.66-4.66v-363.78zM740.66 228.62l-23.94 65.48a11.342 11.342 0 0 1-10.65 7.45h-20.65c-4.76 0-9.01-2.97-10.65-7.45l-23.94-65.48c-1.04-2.84-0.9-5.98 0.39-8.72l14.89-31.67a11.33 11.33 0 0 1 10.26-6.51h38.75c4.39 0 8.39 2.54 10.26 6.51l14.89 31.67c1.28 2.74 1.42 5.88 0.39 8.72z m-32.74-24.23h-24.35l-9.82 20.88 19.59 53.6h4.79l19.59-53.6-9.8-20.88zM684.4 323.11h22.68V637.96c0 106.96-87.02 193.97-193.97 193.97-106.96 0-193.97-87.02-193.97-193.97v-223.53h22.68V637.96c0 94.45 76.84 171.3 171.3 171.3 94.45 0 171.3-76.84 171.3-171.3v-314.85h-0.02z"  horiz-adv-x="1024" />

    
    <glyph glyph-name="kouhong" unicode="&#58909;" d="M505.36-73.73H220.4c-5.52 0-10 4.48-10 10V434.66c0 5.52 4.48 10 10 10h284.96c5.52 0 10-4.48 10-10v-498.39c0-5.52-4.48-10-10-10z m-274.96 20h264.96V424.66H230.4v-478.39zM807.13-73.73H560c-5.52 0-10 4.48-10 10v162.4c0 35.33 14.17 68.65 39.91 93.82 25.55 24.99 59.17 38.75 94.66 38.75 73.1 0 132.57-59.47 132.57-132.57v-162.4c-0.01-5.52-4.48-10-10.01-10z m-237.13 20h227.13v152.4c0 62.07-50.5 112.57-112.57 112.57-63.17 0-114.57-50.5-114.57-112.57v-152.4zM458.52 424.66H267.24c-5.52 0-10 4.48-10 10V618.13c0 5.52 4.48 10 10 10h191.28c5.52 0 10-4.48 10-10v-183.47c0-5.52-4.48-10-10-10z m-181.28 20h171.28V608.13H277.24v-163.47zM426.64 608.13H299.12c-5.52 0-10 4.48-10 10v86.48c0 75.83 61.69 137.52 137.52 137.52 5.52 0 10-4.48 10-10v-214c0-2.65-1.05-5.2-2.93-7.07a10.033 10.033 0 0 0-7.07-2.93z m-117.52 20h107.52V821.71c-60.13-5.09-107.52-55.67-107.52-117.1v-76.48zM598.02 85.86c-5.52 0-10 4.48-10 10 0 53.88 43.83 97.72 97.72 97.72h4.58c5.52 0 10-4.48 10-10s-4.48-10-10-10h-4.58c-42.85 0-77.72-34.86-77.72-77.72 0-5.52-4.48-10-10-10zM332.26 723.07c-0.85 0-1.72 0.11-2.58 0.34-5.34 1.42-8.51 6.9-7.09 12.24 6.73 25.29 22.6 45.35 43.53 55.04 5.01 2.32 10.96 0.14 13.27-4.88 2.32-5.01 0.14-10.96-4.88-13.27-15.29-7.07-27.48-22.79-32.6-42.03a9.988 9.988 0 0 0-9.65-7.44zM220.4-9.48h284.96M220.4 0.52h284.96v-20H220.4zM563.3-9.48h247.74M563.3 0.52h247.74v-20H563.3z"  horiz-adv-x="1024" />

    


  </font>
</defs>
</svg>
